<?xml version="1.0" encoding="utf-8"?>
<!-- Generator: Adobe Illustrator 25.1.0, SVG Export Plug-In . SVG Version: 6.00 Build 0)  -->
<svg version="1.1" xmlns="http://www.w3.org/2000/svg" xmlns:xlink="http://www.w3.org/1999/xlink" x="0px" y="0px"
	 viewBox="0 0 140.33 99.06" style="enable-background:new 0 0 140.33 99.06;" xml:space="preserve">
<style type="text/css">
	.st0{display:none;}
	
		.st1{fill-rule:evenodd;clip-rule:evenodd;fill:#D6D6D6;stroke:#353535;stroke-width:0.1;stroke-linecap:round;stroke-miterlimit:10;}
	.st2{fill:none;}
	.st3{fill:#D6D6D6;stroke:#353535;stroke-width:0.1;stroke-linecap:round;stroke-miterlimit:10;}
	.st4{fill:#007EFF;}
</style>
<g id="Background" class="st0">
</g>
<g id="Countries_사본">
	<path class="st1" d="M118.14,44.95l0.12,0.17l-0.12,0.05l-0.07-0.05L118.14,44.95L118.14,44.95z M118.41,45l-0.08-0.13l0.15-0.19
		l0.19,0l0.02,0.25l-0.14,0.1L118.41,45L118.41,45z M105.6,68.28l-0.06-0.2l-0.18-0.02l-0.1,0.28l0.21,0.03L105.6,68.28L105.6,68.28
		z M105.83,68.04l0.19-0.15l0.13,0.15l-0.12,0.28l-0.16-0.07L105.83,68.04L105.83,68.04z M107.42,67.16l-0.07,0.32l0.11,0.13
		l0.21,0.05l0.09-0.28L107.42,67.16L107.42,67.16z M111.15,64.84l-0.07-0.43l0.32-0.17l0.06-0.14l-0.05-0.12l0.29-0.12l0.2-0.29
		l0.1,0.33l-0.17,0.17l-0.04,0.27l-0.41,0.19l-0.05,0.28L111.15,64.84L111.15,64.84z M112.96,61.87l0.18,0.19l0.02,0.26l-0.1,0.06
		l-0.2-0.21l0.01-0.19L112.96,61.87L112.96,61.87z M113.67,61.38l-0.12-0.12l-0.25-0.04l-0.08-0.08l0.13-0.21l0.29-0.09l0.09-0.01
		l0.06-0.09l0.18,0.01l0.1-0.05l0.23-0.03l-0.21,0.29l-0.3,0.15l-0.04,0.19L113.67,61.38L113.67,61.38z M125.58,31.42l-0.11-0.17
		l0-0.24l0.28-0.19l0.18-0.04l-0.1,0.27l-0.04,0.26L125.58,31.42L125.58,31.42z M127.27,33.19L127.03,33l-0.09-0.27l0.1-0.06
		l-0.03-0.57l-0.12-0.56l-0.21-0.25l-0.24-0.21l-0.18-0.03l-0.01-0.21l0.09-0.42l-0.04-0.32l0.14-0.24l0.19-0.08l0.07-0.13
		l0.21-0.01l0.17-0.29l0.13-0.14l-0.02-0.14l-0.29-0.28l-0.12-0.03l-0.08-0.12l0.14-0.22l0.23-0.02l0.46,0.33l0.51,0.15l0.19-0.12
		l0.05-0.23l0.11-0.09l-0.07-0.24l-0.13-0.1l-0.04-0.16l-0.14-0.3l-0.05-0.3l0.27-0.24l0.13,0l0.05-0.13l-0.08-0.32l-0.1-0.49
		l0.08-0.21l0.04-0.59l-0.08-0.37l-0.44-0.9l-0.04-0.38l-0.11-0.22l0.09-0.09l0.15,0.02l0.18-0.17l-0.02-0.14l0.35,0.04l0.08,0.25
		l0.45,0.48l0.42,0.14l0.16,0.44l0.62,0.78l0.36,0.33l0.1,0.24l0.29,0.1l0.23,0.33l0.43,0.28l0.38,0.09l0.27,0.33l0.24-0.02
		l0.1,0.09l0.4-0.01l0.54-0.28l0.29-0.3l0.1-0.27l0.08-0.08l0.07,0.14l-0.03,0.26l-0.22,0.44l-0.06,0.42l0.09,0.16l0.35,0.28
		l0.22,0.35l-0.01,0.24l-0.05,0.15l0.24,0.03l0.18-0.22l0.25-0.19l0.19,0l-0.13,0.21l-0.16,0.07l-0.06,0.3l-0.21,0.12l-0.28,0.08
		l-0.09,0.23l-0.13,0.15l-0.21-0.02l-0.1-0.1l-0.23,0.14l0,0.16l-0.39-0.05l-0.29-0.12l-0.27,0.05l-0.49,0.53l-0.23,0.61l-0.13,0.51
		l0.05,0.36l-0.09,0.25l-0.01,0.24l-0.26-0.15l-0.13-0.23l-0.47-0.18l-0.44-0.31l-0.37-0.42l-0.23-0.34l-0.29,0.01l-0.24-0.09
		l-0.11-0.14l-0.29-0.05l-0.38,0.22l-0.43,0.46l-0.14-0.12l-0.36-0.3l-0.22,0l-0.22,0.15l-0.04,0.3l0.07,0.26l0.3,0.22l0.35-0.05
		l0.34,0.49l0.33,0.13l0.36,0.04l0.1,0.2l-0.27,0.29l-0.11,0.21l-0.19-0.19L128,32.25l-0.17,0.09l0.01,0.23l-0.14,0.24L127.27,33.19
		L127.27,33.19z M125.7,41.75l0.05-0.3l0.12-0.17l-0.06-0.05l-0.21,0.09l0-0.2l0.2-0.5l0.12-0.09l0.02,0.23l-0.05,0.22l0.2,0.09
		l0.03,0.18L126,41.57l-0.19,0.15L125.7,41.75L125.7,41.75z M112.91,50.87l0.15,0.15l0.11-0.05l-0.18-0.15l-0.09-0.01L112.91,50.87
		L112.91,50.87z M112.8,51.07l0.04,0.09l0.06-0.07L112.8,51.07L112.8,51.07z M112.59,51.24l0.12,0.07l0.07-0.08L112.59,51.24
		L112.59,51.24z M112.38,51.37l0.02,0.15l0.19-0.08L112.38,51.37L112.38,51.37z M112.06,52.11L112,51.77l0.04-0.2l0.17-0.06l0,0.19
		l0.17,0.12l0.09,0.23l-0.2,0.12L112.06,52.11L112.06,52.11z M114.41,52.6l0-0.17l0.11-0.09l0.1,0.08l-0.05,0.19L114.41,52.6
		L114.41,52.6z M114.08,53.05l0.14-0.12l0.08,0.06l-0.14,0.17L114.08,53.05L114.08,53.05z M114.06,52.23l-0.14,0.13l0.01,0.3
		l0.09,0.23l0.15,0.02l0.09-0.25l-0.14-0.32l0.01-0.1L114.06,52.23L114.06,52.23z M121.23,49.3l-0.1-0.33l0.04-0.25l0.13-0.16
		l0.17-0.01l0.04,0.2l-0.07,0.22l0.03,0.14l-0.07,0.19L121.23,49.3L121.23,49.3z M120.16,48.88l0.28-0.21l0.19,0.07l-0.03,0.15
		l-0.21,0.08L120.16,48.88L120.16,48.88z M118.34,51.99l0.12,0.07l0.11-0.1l0.18,0.09l0.15-0.03l0-0.19l-0.24-0.34l0.17-0.25
		l0.19-0.43l0.4-0.18l0.12-0.16l0.34,0.09l0.4,0.33l0.1,0.23l0.2-0.07l0.21-0.53l0.39-0.28l0.06-0.2l-0.1-0.13l-0.04-0.22l-0.3-0.31
		l-0.23-0.04l-0.2-0.2l-0.4-0.07l-0.42,0.27l-0.02,0.19l-0.17,0.21l-0.29,0.05l-0.26,0.14l-0.14-0.06l-0.13-0.44l-0.15-0.01
		l-0.47,0.42l-0.05,0.28l-0.29,0.16l-0.11,0.31l0.42,0.17l0.04,0.31l-0.1,0.08l-0.02,0.16l0.2,0.4l0.38,0.09L118.34,51.99
		L118.34,51.99z M115.66,57.02l-0.16-0.26l-0.2,0.02l-0.1,0.18l0.14,0.33l0.26,0.08l0.1-0.13L115.66,57.02L115.66,57.02z
		 M115.96,56.7l-0.01-0.51l0.04-0.21l0.16,0.17l0,0.27l-0.1,0.2L115.96,56.7L115.96,56.7z M115.52,55.76l0.31-0.14l0.36-0.39
		l-0.25-0.32l0.01-0.17l0.15-0.05l0.22,0.1l0.12,0.12l0.12-0.3l0.05-0.5l-0.06-0.26l0.13-0.88l0.02-0.48l0.2-0.26l0.33-0.26
		l-0.04-0.24l-0.15-0.06l0.03-0.29l-0.16-0.05l0.08-0.19l-0.51-0.06l-0.06-0.12l0.27-0.12l0.11-0.19l-0.03-0.42l-0.19-0.15
		l-0.25,0.01l-0.01,0.1l-0.23,0.13l-0.21-0.06l-0.3-0.41l0.08-0.21l0.51-0.18l0.44-0.03l0.44,0.22l0.22,0.14l0.06-0.12l0.02-0.22
		l0.06-0.31l-0.02-0.22l0.11-0.16l0.22,0.01l0.1,0.2l0.2,0.04l0.28-0.11l0.52-0.03l0.51-0.1l0.32,0.03l0.12,0.07l0.18-0.06l0.02-0.1
		l0.34-0.14l0.1-0.16l0.4-0.25l0.39-0.08l0.46,0.14l0.28-0.04l0.11,0.13l-0.03,0.26l-0.27,0.3l-0.1,0.26l0.13,0.11l0,0.29l-0.01,0.3
		l-0.06,0.11l0.04,0.3l0.3,0.18l0.38,0.46l0.28,0.12l0.2-0.08l0.36-0.42l0.07-0.3l0.18-0.09l0.06-0.15l-0.04-0.22l0.25-0.35
		l0.27-0.01l0.24,0.03l0.1-0.15l-0.06-0.12l-0.03-0.33l-0.53-0.31l-0.05-0.17l0.18-0.4l0.2-0.14l0.12-0.02l-0.08,0.12l-0.01,0.34
		l0.1,0.1l0.15-0.08l0.08-0.08l0.21,0.08l0.14,0.13l0.17-0.03l0.1,0.04L125,48.52l-0.29,0.04l-0.04,0.07l0.09,0.06l0.24-0.04
		l0.41-0.16l0.78,0.16l0.41,0l-0.1-0.11l-0.04-0.32l0.12-0.35l0.36-0.13l0.25,0.08l0.02,0.32l-0.13,0.28l0.1,0.24l0.24,0.01
		l0.28-0.3l-0.11-0.56l0.13-0.33l0.42-0.24l0.21,0.02l0.09-0.14l-0.12-0.2l0.12-0.36l0.21-0.1l0.29,0.09l0.05,0.18l-0.17,0.2
		l-0.13,0.42l-0.02,0.9l0.14,0.09l0.22-0.11l0.17-0.28l0.26,0.01l0.33-0.28l0.16-0.39l-0.04-0.27l0.38-0.27l-0.02-0.21l-0.15-0.18
		l-0.3-0.54l-0.08-0.39l-0.01-0.76l0.22-0.86l0.1-0.59l-0.13-1.12l-0.32-0.56l0.02-0.41l0.15-0.49l0.51-0.16l0.24,0.03l0.1,0.23
		l0.1-0.1l-0.03-0.37l-0.03-0.24l-0.09-0.13l-0.04-0.32l0.04-0.16l0.02-0.24l0.14-0.18l0.01-0.1l0.06-0.24l-0.07-0.15l0.03-0.39
		l0.09-0.18l-0.1-0.24l-0.01-0.62l-0.22-0.53l-0.16-0.02l-0.16-0.11l0.05-0.67l-0.26-0.31l-0.54-0.79l-0.14-0.34l-0.06-0.5
		l0.02-0.48l0.04-0.16l-0.19,0.09l-0.14,0l-0.06-0.1l-0.26-0.16l-0.15-0.04l0.01,0.1l-0.2,0.36l-0.03,0.27l0.12,0.15l0.15-0.05
		l0.39-0.27l0.11,0.41l-0.15,0.27l-0.2,0.1l-0.18-0.18l-0.07-0.01l0.05,0.38l-0.16,0.13l-0.21-0.11l-0.02-0.28l-0.01-0.32
		l-0.08-0.17l-0.2,0.04l-0.16-0.12l-0.09,0.24l0.06,0.47l-0.03,0.32l-0.19,0.05l-0.22,0.25l-0.02,0.18l0.34,0.44l0.1,0.25
		l-0.19,0.41l-0.22,0.11l-0.24-0.08l-0.07,0.16l0.19,0.32l0.24-0.03l0.23-0.2l0.22,0.72l0.02,0.77l-0.12,0.41l-0.06,0.74l-0.4,1.06
		l0.03,0.42l-0.18,0.46l-0.41,0.15l-0.23,0.44l-0.04,0.52l-0.23,0.28l-0.09,0.31l-0.42,0.31l-0.8,0.35l-0.3,0.05l-0.18,0.28
		L124,43.57l-0.31-0.5l0.03-0.19l0.17-0.06l0.2-0.27l-0.01-0.17l0.22-0.17l-0.01-0.08l-0.37,0.04l-0.29,0.23l-0.35,0.09l-0.1,0.29
		l0.17,0.4l-0.05,0.74l-0.09,0.35l-0.41,0.33l-0.03,0.2l-0.15,0.13l-0.12,0.54l0.12,0.17l-0.01,0.23l-0.11,0.07l0.06,0.1l-0.1,0.18
		l-0.15,0l0.08,0.15l-0.25,0.07l-0.15-0.14l-0.25,0.14l-0.13-0.07l-0.01-0.34l-0.09-0.05l-0.22,0.12l-0.19-0.02l-0.09-0.08
		l-0.7,0.15l-0.37,0.09l-0.37,0.08l-0.4-0.02l-0.4,0.07l-0.12-0.1l-0.33,0l-0.64,0.33l-0.15,0.35l-0.23,0.12l-0.08,0.22l-0.49,0.43
		l-0.28,0.07l-0.26,0.28l-0.09,0.19l-0.26,0.21l-0.43,0.03l-0.17,0.2l0.04,0.5l0.15,0.1l0.03,0.18l-0.12,0.16l-0.26-0.02l-0.36,0.21
		l-0.11,0.17l-0.22,0.13l-0.33,0.28l-0.14,0.23l-0.25-0.03l-0.3,0.12l0.14,0.02l0.14,0.04l0.07,0.29l0.09,0.38l-0.12,0.09
		l-0.02-0.25l-0.11-0.2l-0.1,0.24l0.04,0.29l0.19,0.11l0.01,0.18l-0.13,0.18l0.16-0.07l0.13-0.2l0.25-0.05l0.14,0.08l-0.13,0.1
		l0.1,0.1l0.25-0.04l0.01-0.29l-0.15-0.17l-0.29,0.04l0.03-0.12l0.1-0.13l-0.04-0.24l0.15-0.15l0.25,0.13l0.21,0.5l0,0.35l0.11,0.17
		l-0.04,0.53l-0.29,0.47l-0.27-0.01l0.05,0.18l0.19,0.44l0.03,0.55l0.22,0.34l-0.04,0.26l-0.15,0.15l0.17,0.27l0.25,0l0.19,0.15
		l0.12-0.11l0.02-0.16l-0.19-0.38l0.06-0.5l0.16-0.14l0.14,0.15l-0.11,0.12l-0.02,0.15l0.21,0.28l0.04,0.43l-0.11,0.24L115.52,55.76
		z"/>
	<path class="st1" d="M110.3,47.31l0.16-0.08l0.14,0.17l-0.24,0.07L110.3,47.31L110.3,47.31z M107.95,48.17l-0.11-0.23l0.08-0.1
		l0.1,0.01l0.13-0.17l0.06,0.18l-0.01,0.27l-0.12-0.01L107.95,48.17L107.95,48.17z M111.69,46.97l-0.24,0.15l-0.01,0.18l0.06,0.22
		l0.16-0.03l0.12-0.15l0.01-0.27L111.69,46.97L111.69,46.97z M112.48,49.12l-0.02-0.18l0.16-0.18l0.24,0.05l-0.11,0.2l-0.15,0.11
		L112.48,49.12L112.48,49.12z M112.82,48.52l-0.13,0.09l-0.05-0.23l0.04-0.26l0.11-0.18l0.16-0.07l0.04,0.13l0.03,0.22L112.82,48.52
		L112.82,48.52z M108.1,50.28l-0.08-0.25l0.21-0.2l0.69-0.12l0.3,0.09l0,0.2l-0.25,0.33l-0.56,0.03L108.1,50.28L108.1,50.28z
		 M106.75,40.64l0.04,0.05l0.28-0.16l0.47,0.07l-0.24,0.09l0.55,0.59l0.33,0.63l0.21,0.07l-0.13,0.15l0.18,0.35l0.1,0.29l-0.5-0.24
		l-0.09-0.17l-0.14,0.26l-0.22-0.09l-0.37,0.41l0.64,0.4l0.18-0.04l0.11,0.36l-0.07,0.65l0.16,0.14l0.13-0.09l0.21,0.56l-0.55,0.28
		l-0.03,0.18l0.19,0.19l-0.02,0.27l-0.2,0.08l-0.04,0.29l0.13,0.31l-0.2-0.01l0.29,0.78l0.22,0.05l0.03,0.36l0.11,0.11l-0.05,0.27
		l0.24-0.14l0.07-0.4l0.12,0.21l0.26-0.29l0.77-0.51l0.29-0.02l0.03,0.17l0.24-0.23l0.16,0.04l0.12,0.33l0.31-0.08l0.1,0.16
		l0.17-0.09L111.25,47l0.41-0.19l0.35,0.04l0.49-0.49l-0.07-0.18l0.23-0.14l0.06-1.2l-0.11-0.01l-0.12,0.1l0.03-0.37l-0.08-1.12
		l-0.2-0.28l0.06-0.7l-0.78-1.27l-0.73-0.98l-0.44-1.12l-0.67,0.32l-1.09-0.04l-0.62,0.43l-0.56,0.07l-0.53,0.41L106.75,40.64z"/>
	<polygon class="st2" points="46.16,12.07 46.02,12.05 46.16,12.07 	"/>
	<polygon class="st2" points="88.76,11.66 88.58,11.7 88.58,11.7 	"/>
	<path class="st3" d="M135.26,25.88l-0.16-0.08l-0.14-0.17l-0.1,0.1l-0.1,0.36l-0.12,0.32l-0.11,0.45l-0.19,0.28l0.04,0.2l0.24,0.36
		c-0.01-0.04,0.07-0.44,0.07-0.44l0.23-0.72l0.14-0.05l0.43-0.31l0.11-0.33l-0.09-0.01L135.26,25.88z"/>
	<polygon class="st3" points="94.7,68.52 94.73,68.67 95,68.71 95.12,68.64 94.95,68.43 	"/>
	<polygon class="st3" points="101.1,53.07 100.73,52.96 100.68,53.08 100.84,53.29 101.17,53.34 101.49,53.53 101.49,53.19 
		101.23,53.17 	"/>
	<path class="st3" d="M84.96,73.55l-0.32-0.17l-0.24,0.13c0,0-0.16-0.15-0.15-0.15l-0.32,0.03l-0.16-0.07l-0.24,0.12l-0.29-0.04
		l-0.33,0.12l-0.29,0.01l-0.1,0.28l-0.51,0.22l-0.46,0.38l0.12,0.27l-0.06,0.58l0.14,0.33l-0.04,0.18l0.25,0.28l0.33,0.04l0.19,0.19
		l0.23,0.02l0.26,0.23l0.2-0.08l0.11-0.27l0.25-0.01l0.25,0.1L84,76.04l0.04-0.18l0.3-0.02l0.25-0.21l-0.02-0.28l0.22-0.46l0.17-0.1
		l0.09-0.22l0.28-0.35l-0.08-0.42L84.96,73.55z"/>
	<polygon class="st3" points="85.03,71.92 84.76,71.77 84.38,71.78 84.5,71.95 84.72,71.96 85.01,72.05 	"/>
	<polygon class="st3" points="102.19,66.02 102.09,66.01 101.96,65.64 101.63,65.47 101.41,65.56 101.42,65.78 101.13,65.84 
		100.74,66.18 100.36,66.68 100.42,66.84 100.34,67.04 100.19,67.15 99.78,67.7 99.53,68.3 99.41,68.38 99.49,68.53 99.43,69.14 
		99.4,69.78 99.54,69.9 99.56,70.08 99.49,70.1 99.46,70.29 99.59,70.57 99.76,70.63 99.78,70.84 100.2,71.04 100.38,71.4 
		100.31,71.76 100.3,72.02 100.54,71.97 100.75,72.08 100.72,71.75 100.85,71.39 100.75,70.91 101.05,70.6 101.52,70.05 
		101.57,69.67 101.7,69.57 101.56,69.5 101.73,68.91 101.81,68.5 101.8,68.05 102.01,67.74 102.19,66.94 102.34,66.54 102.45,66.53 
		102.43,66.25 	"/>
	<polygon class="st3" points="98.53,64.89 98.55,65.25 98.71,65.21 98.75,64.99 98.66,64.85 	"/>
	<polygon class="st3" points="102.63,56.5 102.36,56.29 102.17,56.29 102.05,56.22 102.1,56.44 102.39,56.58 102.59,56.76 	"/>
	<polygon class="st3" points="112.08,29.79 112.17,29.64 112.19,29.46 112.08,29.37 112.06,29.09 112.09,28.98 112.29,28.89 
		112.65,28.98 112.76,28.96 112.8,28.69 112.78,28.53 112.81,28.32 112.91,28.18 112.94,27.9 112.95,27.62 112.78,27.47 
		112.85,26.93 112.85,26.67 112.86,26.29 112.91,26.01 112.74,25.72 112.66,25.51 112.62,25.27 112.32,24.66 112.24,24.38 
		112.32,24.25 112.53,24.15 112.71,24.16 112.89,23.98 112.98,23.77 113.32,23.37 113.44,23.35 113.69,23.45 113.87,23.55 
		114.84,23.85 114.99,23.92 115.16,23.94 115.3,23.8 115.29,23.57 115.22,23.38 115.22,23.21 115.29,23.1 115.25,22.93 
		115.23,22.75 115.41,22.46 115.52,22.36 115.5,22.11 115.43,21.94 115.49,21.86 115.71,21.78 115.65,21.62 115.68,21.45 
		115.59,21.27 115.68,21.07 115.85,20.98 115.86,20.85 115.8,20.68 115.72,20.34 115.74,19.97 115.85,19.95 115.93,19.89 
		115.93,19.77 115.87,19.65 115.91,19.48 115.78,19.37 115.71,19.21 115.82,19 115.88,18.74 115.82,18.66 115.7,18.45 115.72,18.31 
		115.97,18.07 116.21,18.06 116.29,17.94 116.33,17.68 116.44,17.36 116.26,17.22 116.13,17.05 116.13,16.82 115.91,16.51 
		115.87,16.34 116.04,16.22 115.92,15.92 115.85,15.74 115.6,15.69 115.44,15.54 115.16,15.39 114.99,15.53 114.73,15.53 
		114.54,15.66 114.47,15.89 114.3,15.92 114.14,15.94 114.01,16.24 113.7,16.2 113.5,16.21 113.37,16.42 113.34,16.67 113.13,16.75 
		113.02,17.03 113.02,17.2 112.85,17.25 112.63,17.41 112.18,17.43 112.02,17.47 111.81,17.39 111.66,17.5 111.46,17.55 
		111.41,17.33 111.3,17.11 111.08,17.08 110.85,17.21 110.6,17.24 110.54,17.08 110.33,16.73 110.21,16.63 109.96,16.22 109.98,16 
		110.07,15.91 110.16,15.63 110.09,15.36 110.06,15.08 109.8,15.06 109.8,14.88 109.81,14.66 109.97,14.49 110.03,14.29 
		109.92,14.22 109.79,14.23 109.61,14.34 109.43,14.33 109.26,14.36 109.05,14.3 108.91,14.15 108.76,14.12 108.69,14.03 
		108.37,13.84 108.35,13.68 108.22,13.52 108.14,13.51 107.99,13.36 107.97,13.2 107.8,13.16 107.66,12.95 107.62,12.77 
		107.52,12.64 107.36,12.65 107.27,12.82 107.11,12.76 106.95,12.8 106.89,12.92 106.72,12.77 106.63,12.63 106.48,12.54 
		106.14,12.46 106.05,12.36 106.19,12.24 106.2,12.16 105.98,12.13 105.8,12.25 105.48,12.16 105.35,12.21 105.2,12.1 105.04,12.14 
		104.84,12.08 104.75,11.87 104.51,11.75 104.2,11.34 104.07,11.02 104.13,10.81 104.1,10.53 103.93,10.48 103.77,10.35 
		103.78,10.04 103.68,9.92 103.67,9.6 103.6,9.3 103.08,8.87 102.84,8.43 102.82,8.24 102.7,7.97 102.54,8.03 102.46,7.97 
		102.53,7.8 102.55,7.66 102.38,7.49 102.31,7.22 102.16,7.12 102.13,6.89 101.97,6.63 101.87,6.35 101.54,6.09 101.53,5.92 
		101.65,5.72 101.62,5.54 101.23,5.47 101.18,5.36 101.2,5.21 101.14,5.01 101.15,4.8 101.07,4.6 100.92,4.5 100.94,4.35 
		100.84,4.24 100.69,4.24 100.44,4.14 100.38,3.99 100.49,3.85 100.45,3.7 100.24,3.63 100.07,3.74 100.01,3.61 99.84,3.58 
		99.81,3.42 99.87,3.26 99.79,3.11 99.6,3 99.44,3 99.3,2.81 99.18,2.85 98.96,2.82 98.83,2.75 98.67,2.82 98.67,3.01 98.54,3.05 
		98.28,2.88 98.19,2.77 97.98,2.81 97.62,2.77 97.58,2.62 97.4,2.43 96.91,2.33 96.71,2.14 96.47,2.09 96.3,2.02 96.21,2.06 
		95.76,2.06 95.64,2.28 95.51,2.27 95.36,2.37 95.04,2.32 94.84,2.33 94.51,2.23 94.31,2.41 94.04,2.38 93.89,2.6 93.64,2.67 
		93.42,2.62 93.35,2.67 93.15,2.66 92.95,2.7 92.54,2.7 92.36,2.82 92.33,3.01 92.07,3.25 91.95,3.53 91.81,3.68 91.79,3.83 
		91.67,3.96 91.62,4.34 91.71,4.47 91.86,4.52 92.24,4.35 92.46,4.28 92.65,4.35 92.82,4.75 92.91,5.06 93.12,5.25 93.09,5.49 
		93.13,5.69 93.06,6.05 92.85,6.18 92.61,6.45 92.5,6.81 92.29,6.94 92.07,7.23 92.02,7.49 92.14,7.76 92.07,7.93 92.07,8.27 
		92.23,8.49 92.16,8.77 91.96,8.85 91.89,9.03 91.96,9.32 91.91,9.77 91.81,9.89 91.79,10.32 91.94,10.37 92.04,10.47 92.18,10.4 
		92.29,10.49 92.31,10.82 92.18,11.1 91.91,11.31 91.34,11.34 90.96,11.54 90.13,12.15 89.95,12.16 89.75,11.94 89.3,11.82 
		89.01,11.84 88.98,11.73 88.76,11.66 88.58,11.7 88.6,11.72 87.96,14.1 87.96,14.63 87.77,15.06 87.78,15.38 87.49,16.03 
		87.68,16.56 88.38,17.01 88.92,16.69 89.55,16.76 90.21,16.96 90.48,17.31 90.94,16.78 90.93,16.43 90.99,16.14 91.44,16.06 
		91.61,15.95 92.29,16.21 92.63,16.76 93.13,17.34 93.51,17.96 94.03,18.45 94.01,18.72 94.1,18.95 94.05,19.22 93.92,19.38 
		93.88,19.59 93.73,19.77 93.51,19.68 93.38,19.52 93.05,19.52 92.85,19.62 92.44,19.38 92.16,19.4 91.83,19.76 91.36,20.04 
		91.1,20.17 90.84,19.93 90.71,19.95 90.67,20.24 90.53,20.4 90.32,20.4 90.15,20.35 90,20.53 89.68,20.91 89.56,21.37 89.54,21.7 
		89.35,21.88 89.01,21.92 88.26,22.3 87.89,22.26 87.51,22.13 87.32,22.24 86.95,22.83 86.63,23 86.25,23.22 86.01,23.42 
		85.89,23.65 85.73,23.67 85.42,23.47 85.05,23.34 84.6,23.12 84.25,22.8 83.87,22.74 83.25,22.79 82.86,23.01 82.59,23.31 
		82.49,23.99 82.48,24.34 82.43,24.55 83.07,25.09 83.66,25.56 83.64,25.76 83.44,26.03 83.2,26.31 82.42,26.98 81.94,27.6 
		81.65,28.08 81.39,28.05 80.88,28.15 80.5,28.13 80.05,28.35 79.59,28.62 79.15,28.58 78.5,28.57 78.04,28.66 77.52,28.75 
		76.36,29 75.45,29.19 74.95,29.63 74.21,30.08 73.9,30.28 73.53,30.25 73.09,30.06 73.11,29.89 73.08,29.64 72.39,29.75 
		71.85,29.77 71.32,29.4 70.88,29.3 69.93,28.81 69.01,28.24 68.56,27.67 68.15,27.61 67.04,27.35 66.09,27.25 65.86,27.17 
		65.67,27.25 65.56,27.42 65.02,27.54 64.27,27.53 62.99,27.26 62.04,27.2 61.33,27.06 60.7,27.05 60.39,27.05 60.13,26.92 
		59.86,26.21 59.77,25.85 59.5,25.33 59.28,24.97 59.15,24.5 59.15,24.3 58.96,24.03 58.73,23.92 58.58,23.88 58.54,23.69 
		58.53,23.41 58.43,23.35 58.28,23.38 57.85,23.32 57.5,23.06 56.98,22.57 56.79,22.51 56.65,22.49 56.38,22.41 56.27,22.21 
		55.82,21.84 54.8,21.47 54.69,21.48 54.54,21.58 54.11,21.57 53.43,21.5 51.95,20.98 51.63,20.75 51.35,20.17 51.32,19.92 
		51.35,19.69 51.47,19.54 51.71,19.39 51.84,19.12 51.7,18.89 51.66,18.51 51.76,18.33 51.78,17.97 51.68,17.77 51.52,17.42 
		51.31,17.28 51.09,17.05 51.02,16.76 50.88,16.51 50.83,16.22 50.82,15.97 50.68,15.7 50.45,15.47 50.23,15.37 50.14,15.17 
		49.89,15.03 49.65,15.03 49.48,15.16 49.3,15.21 49.15,15.13 48.93,14.82 48.87,14.67 48.58,14.64 48.25,14.75 48.12,14.87 
		48.04,15.04 47.89,15.03 47.61,14.79 47.56,14.55 47.56,14.44 47.38,14.15 47.09,13.91 46.89,13.62 46.72,13.52 46.58,13.35 
		46.53,13.14 46.54,12.94 46.47,12.76 46.42,12.78 46.39,12.87 46.28,12.89 46.19,12.67 46.11,12.57 46.17,12.22 46.16,12.07 
		46.02,12.05 45.72,11.9 45.53,11.87 45.56,11.92 45.24,12.19 44.98,12.3 44.51,12.68 44.47,12.93 44.54,13.11 44.31,13.42 
		43.82,13.53 43.52,13.7 43.42,14.05 43.36,14.72 43.59,15.37 43.83,15.8 43.76,16.01 43.31,16.4 42.96,16.48 42.65,16.76 
		42.42,16.81 42.28,16.74 42.22,16.55 41.95,16.51 41.33,16.57 40.92,16.49 40.34,16.2 39.98,16.11 39.8,16.11 39.58,16.8 
		39.39,17.23 39.32,17.58 39.07,18.46 38.98,19.15 38.87,19.38 39.03,19.54 39.37,19.74 39.19,20.04 39.13,20.28 38.92,20.25 
		38.73,20.34 38.48,20.31 38.32,20.13 38.11,20.2 37.73,20.24 37.03,20.3 36.52,20.42 36.3,20.39 36.12,20.27 35.85,20.35 
		35.53,20.58 35.5,20.79 35.74,21.03 36.18,21.06 36.53,21.15 36.52,21.29 36.27,21.49 36.36,21.96 36.36,22.2 36.47,22.42 
		36.48,22.75 36.72,23.26 36.74,23.53 37.05,23.82 37.09,24.47 36.88,24.62 36.74,24.88 36.97,25.22 36.82,25.28 36.75,25.45 
		36.44,25.62 36.4,26.03 36.08,26.16 35.41,25.89 34.84,25.05 34.55,25.08 33.93,24.74 32.99,24.57 32.49,24.68 31.72,24.36 
		30.96,24.45 30.57,24.46 30.23,24.3 29.92,24.52 29.61,24.6 28.77,24.39 28.16,24.14 27.86,23.91 27.36,23.86 27.19,23.92 
		26.82,23.85 26.53,23.76 26.34,23.84 26.33,24.18 26.38,24.54 26.34,24.95 25.85,24.97 24.88,24.87 23.75,24.62 23.5,24.43 
		22.99,24.3 22.65,24.57 22.75,24.77 22.38,24.95 22.31,25.08 22.21,25.06 22.47,25.12 22.45,25.45 21.86,26.15 21.58,26.52 
		21.85,26.73 22.52,27.02 22.76,27.32 23.03,27.46 23.34,27.2 23.44,26.77 23.63,26.84 24.32,27.53 24.36,27.85 23.86,28.29 
		23.33,28.19 22.55,28.22 22.46,27.98 22.16,27.59 21.61,28.04 21.29,27.97 20.84,28.23 20.43,28.32 20.36,28.69 20.82,28.99 
		20.76,29.3 20.21,29.46 19.52,29.53 19.64,29.67 19.71,29.93 19.07,30.07 18.98,30.42 18.69,30.47 18.01,30.28 17.67,30.49 
		17.62,30.97 17.95,31.61 18.24,31.49 18.68,31.54 18.71,31.89 18.53,32.19 18.64,32.65 18.94,32.82 18.93,33.25 18.76,33.42 
		18.34,34.14 18.11,35.11 18,34.92 17.73,34.86 17.44,35.06 17.23,35.03 17.07,34.72 16.76,34.52 16.3,34.59 16.23,34.6 
		16.14,34.47 15.79,34.51 15.5,34.28 15.12,34.34 14.61,34.63 14.48,34.61 14.06,34.66 13.88,34.77 13.71,34.81 13.66,35.01 
		13.8,35.14 13.76,35.46 13.35,35.8 13.29,36.19 13.26,36.27 29.82,45.94 38.89,56.83 58.09,61.04 66.36,68.91 70.16,70.65 
		75.88,68.59 79.02,70.3 80.55,70.35 80.74,70.39 80.8,70.44 80.8,70.43 80.9,70.46 81.02,70.41 81.2,70.52 81.47,70.44 
		81.47,70.28 81.58,69.98 81.7,70.28 81.95,70.61 82.11,70.58 82.45,70.94 82.62,70.91 82.83,70.95 83.03,70.7 83.22,70.93 
		83.46,70.89 83.61,70.98 83.62,71.09 83.38,71.09 83.3,71.35 83.05,71.6 83.02,71.79 83.33,72.35 83.54,72.51 83.51,72.66 
		83.51,73 83.58,72.94 83.73,72.75 84.07,72.85 84.06,72.94 84.24,72.96 84.55,72.66 84.49,72.5 84.37,72.47 84.38,72.38 
		84.26,72.05 84.07,72.02 83.99,71.72 84.08,71.61 84.32,71.46 84.39,71.26 84.37,71.09 84.45,71.09 84.57,70.99 84.58,71.07 
		84.64,71.2 84.72,71.21 84.66,71.25 84.67,71.32 84.81,71.36 84.74,71.44 84.82,71.46 85,71.31 85.31,71.3 85.45,71.08 
		85.69,71.21 85.99,71.15 86.35,71 86.25,70.78 86.52,70.82 86.83,70.77 87.12,70.92 87.31,70.89 87.67,70.76 88.01,70.5 
		88.24,70.25 88.29,70.14 88.36,70.22 88.47,70.34 88.64,70.25 88.81,70.03 89.07,69.93 89.06,69.55 89.03,69.27 89.08,69.05 
		89.03,68.87 89.16,69.02 89.53,69.26 89.55,69.47 89.83,69.82 90.04,69.79 89.86,70 89.65,70.07 89.67,70.2 90.25,70 90.33,69.7 
		90.62,69.64 90.78,69.52 91.01,69.7 91.26,69.67 91.31,69.46 91.57,69.43 91.66,69.29 91.75,69.49 91.95,69.78 92.12,69.67 
		92.2,69.4 92.37,69.42 92.38,69.52 92.64,69.55 92.7,69.4 93.05,69.4 93.27,69.23 93.42,69.12 93.44,69.3 93.56,69.17 93.72,69.24 
		93.99,69.16 93.9,68.94 94.05,68.77 94.2,68.45 94.1,68.12 94.25,68.18 94.37,68.03 94.77,68.02 94.79,68.17 95.08,68.2 
		95.2,67.85 95.35,67.86 95.43,67.62 95.57,67.63 95.58,67.76 95.68,67.71 95.9,67.45 96.05,67.69 96.14,67.38 96.32,67.37 
		96.47,67.14 96.2,67.05 95.97,67.1 95.62,66.76 96.14,66.8 96.42,66.5 96.52,66.63 96.7,66.5 97.1,66.81 97.25,66.5 97,66.38 
		96.92,66.22 96.99,66.02 97.28,66.29 97.48,66.1 97.46,66.01 97.25,65.98 97.23,65.69 97.08,65.54 97.32,65.51 97.42,65.68 
		97.57,65.7 97.66,65.87 97.7,65.61 97.45,65.37 97.51,65.13 97.67,65.15 97.8,64.97 98.01,65.22 97.98,65.43 98.15,65.45 
		98.28,65.73 98.35,65.35 98.26,65.11 98.11,65.1 98.07,64.91 98.29,64.88 98.36,64.68 98.11,64.56 98.5,64.31 98.35,64.11 
		98.11,64.1 97.97,64.2 98.06,63.97 98.41,63.78 98.95,63.62 98.81,63.42 98.6,63.58 98.26,63.2 98.59,63.24 98.41,62.93 
		98.17,62.88 98.35,62.76 98.24,62.58 98.44,62.65 98.53,62.4 98.62,62.43 98.79,62.43 98.73,62.73 98.93,62.76 99.37,62.39 
		99.41,62.21 99.76,62.27 99.58,61.99 99.35,61.94 99.45,61.67 99.64,61.92 99.91,61.83 99.94,61.55 100.06,61.45 99.95,61.26 
		100,61.05 100.19,60.95 100.1,60.75 100.12,60.58 99.84,60.38 100.25,60.56 100.44,60.44 100.75,59.92 101,59.92 101.03,60.18 
		101.09,60.3 101.19,59.99 101.43,59.88 101.29,59.57 101,59.51 100.88,59.37 101.02,59.28 101.23,59.34 101.43,59.2 101.3,59.03 
		101.12,58.91 101.36,58.74 101.46,58.77 101.52,58.65 101.37,58.47 100.85,58.43 100.9,58.29 101.26,58.05 101.55,58.17 
		101.66,58.11 101.72,57.95 101.89,58.08 101.9,58.19 102.11,58.06 102.04,57.86 102.05,57.39 101.9,57.26 101.69,57.43 
		101.74,57.52 101.72,57.66 101.4,57.55 100.96,57.84 100.75,57.78 100.79,57.5 101.22,57.47 101.99,56.9 101.96,56.8 101.65,56.77 
		101.54,56.58 101.44,56.72 101.02,56.01 100.66,55.9 100.13,56.25 99.89,56.14 99.63,55.64 99.3,55.67 98.95,55.89 98.82,56.15 
		98.9,55.79 99.29,55.54 99.49,55.58 99.72,55.45 100.08,55.69 100.36,55.59 100.42,55.32 100.59,55.2 100.78,55.25 101.19,54.87 
		101.62,54.87 101.66,54.65 101.36,53.99 100.62,53.4 100.14,53.04 99.59,52.35 99.29,52.3 98.74,52.59 98.5,52.5 98.14,52.08 
		98.15,51.92 97.99,51.83 97.62,51.92 97.23,51.83 96.87,51.9 96.37,52.38 96.82,51.72 97.12,51.61 97.3,51.69 97.5,51.72 
		97.6,51.63 97.82,51.76 98.26,51.64 98.39,52.14 98.57,52.33 98.87,52.37 99.11,52.12 99.59,52.25 99.9,52.53 100.14,52.57 
		100.41,52.93 100.89,52.72 101.49,53.04 101.68,52.95 101.51,52.48 101.32,52.37 101.01,51.88 101.03,51.76 100.88,51.61 
		100.56,51.59 100.27,51.43 99.93,50.79 99.97,50.32 99.45,49.83 99.47,49.37 99.18,49.22 99.38,48.88 99.27,48.84 98.92,47.8 
		98.12,47.26 97.88,47.36 97.9,47.14 97.15,46.66 97.03,46.66 97.12,45.88 97.31,45.37 97.22,45 97.36,44.56 97.46,44.64 
		97.69,44.6 98.03,44.17 98.17,44.29 98.5,43.99 98.22,43.78 98.11,43.57 98.39,43.33 98.86,43.42 98.91,43.09 99.31,43.06 
		99.3,42.81 98.98,42.54 99.33,42.54 99.57,42.77 99.66,42.59 99.94,42.64 100.26,42.44 100.46,42.46 100.84,42.07 100.94,42.27 
		101.1,42.11 101.11,42.28 101.46,42.59 101.89,42.31 101.91,42.17 101.66,42.09 101.67,41.75 101.88,41.67 102.05,41.69 
		101.83,41.3 101.88,41.12 102.23,41.06 102.05,40.94 101.67,40.96 101.23,40.92 101.27,40.8 100.93,40.76 100.78,40.89 99.79,40.8 
		99.61,40.6 99.43,40.5 99.29,40.2 99.12,40.11 99.04,39.97 98.3,40.21 97.92,40.18 98.03,40.3 98,40.58 97.76,40.73 97.32,40.84 
		97.38,40.9 97.5,41.11 97.3,41.38 97.14,41.49 96.85,41.34 96.54,41.48 96.12,41.41 95.8,40.54 95.86,40.11 95.82,39.81 
		95.41,39.77 95.23,39.84 95.23,39.69 95.05,39.67 94.9,39.84 94.81,39.66 94.78,39.8 94.6,39.37 94.56,39.17 94.08,38.76 
		93.78,38.53 93.79,38.18 93.67,37.8 93.82,37.68 93.83,37.53 93.9,37.37 93.97,37.06 94.18,36.94 94.24,36.77 94.8,37.05 
		95.31,37.1 95.71,37.14 95.9,36.83 95.83,36.66 96.05,36.69 96.04,36.31 95.96,36.21 96.09,36.05 96.36,35.28 96.95,35.04 
		97.28,35.07 97.58,34.68 97.75,34.66 97.86,34.06 98.22,33.74 98.33,33.4 98.46,33.34 98.71,33.02 99.06,33.06 99.19,33.17 
		99.46,33.2 99.61,32.91 100.02,33.55 100.66,34.04 100.67,34.31 100.46,34.39 100.37,34.59 99.98,34.98 99.9,35.36 99.6,35.34 
		99.63,35.46 99.51,35.85 99.8,36.23 99.75,36.44 99.62,36.49 99.59,36.68 99.72,36.86 100.07,36.78 100.47,36.54 100.3,36.81 
		99.98,36.97 99.99,37.13 100.17,37.19 100.11,37.36 99.97,37.44 99.62,37.35 99.44,37.54 99.18,37.53 99.02,37.75 99.25,37.94 
		99.26,38.2 99.45,38.19 99.67,37.97 99.85,38 100.15,37.65 100.62,37.51 100.68,37.4 100.59,37.07 101.01,36.83 101.76,36.39 
		101.96,36.44 102.05,36.13 102.41,36.17 102.86,35.93 103,36.09 103.19,36.06 103.53,36.07 104.05,35.61 104.12,35.92 
		104.16,35.92 104.97,35.66 109.9,33.03 110.6,30.69 112.08,29.8 112.08,29.8 	"/>
	<polygon class="st3" points="112.08,29.8 112.08,29.8 112.08,29.79 	"/>
	<polygon class="st3" points="45.72,11.9 45.53,11.87 45.53,11.87 	"/>
	<polygon class="st3" points="88.58,11.7 88.45,11.52 88.58,11.7 	"/>
	<polygon class="st3" points="46.15,12.03 46.16,12.07 46.16,12.07 	"/>
	<polygon class="st3" points="45.53,11.87 45.47,11.77 45.53,11.87 	"/>
	<rect x="45.53" y="11.87" transform="matrix(0.1229 -0.9924 0.9924 0.1229 28.1519 55.5986)" class="st3" width="0" height="0"/>
	<path class="st1" d="M71.67,67.93l0.12-0.08l0.13-0.01l0.1-0.15l0.19-0.13l0.35-0.09l0.2,0.05l-0.05,0.24l0.13,0.13l0.21,0.02
		l0.09-0.29l0.25-0.14l0.28,0.35l0.19-0.2l0.18,0.03l0.05,0.23l0.37-0.13l0.08-0.22l0.4-0.07l0.28,0.21l0.54-0.11l0.04-0.49
		l0.36-0.15L76.53,67l0.24-0.19l0.3,0.31l-0.03,0.2l0.34,0.11l0.11,0.22l0.71,0.08l0.1,0.17l0.44-0.12l0.24,0.25l-0.09,0.3
		l-0.23,0.01l-0.23,0.55l0.17,0.09l0.05,0.34l0.6,0.3l0.06,0.24l0.29,0.17l0.29,0.2l0.33-0.06l0.12,0.12l0.2-0.03l0.26,0.18
		l-0.02-0.01l0.04,0.13l-0.13,0.16l-0.17,0.05l-0.13-0.02l-0.29,0.14l-0.27-0.05l-0.29,0.02l-0.1,0.13l0.04,0.23l-0.17,0.09
		l-0.07,0.1l-0.14-0.11l-0.24,0.02l-0.16,0.12l-0.11,0.03l-0.08-0.16l-0.1-0.05l-0.05,0.21l-0.14,0.15l0.07,0.1l-0.07,0.23
		l-0.02,0.25l-0.05,0.05l0.07,0.19l-0.1,0.13l-0.12,0.02l-0.27,0.34l-0.2-0.02l-0.06-0.12l-0.03,0.13l-0.15,0.09l-0.12,0.26
		l-0.14,0.09l-0.05,0.28l0.11,0.04l0.1,0.17l-0.22,0.5l-0.21,0.24l0.29,0.32l-0.06,0.16l-0.27,0.04L77,75.24l0.43,0.33l0.36,0.45
		l0.15,0.01l0.16,0.38l-0.02,0.18l-0.07,0.1l0.09,0.37l0.04,0.2l0.55,0.57L79,78.06l0.02,0.11l0.78,0.56l0.69,0.65l0.13,0.32
		l0.63,0.6l0.17,0.43l0.02,0.25l0.09,0.01l-0.04,0.21l0.31,0.41l-0.02,0.16l0.07,0.14l-0.09,0.12l0.23,0.36l0,0.58l0.11,0.11
		l0.06,0.51l0.09,0.11l-0.02,0.28l-0.07,0.17l0.07,0.28l-0.08,0.1l0.06,0.41l-0.01,0.15l0.13,0.08l0.04,0.23l0.14,0.38l-0.06,0.23
		L82.37,86l0.01-0.12l-0.09-0.13l-0.14,0.06l-0.01,0.24l0.13,0.17l-0.05,0.14l-0.17,0.1l-0.03,0.17l-0.27,0.16l0.18,0.36l-0.15,0.26
		l0.08,0.14l-0.23,0.17l-0.18,0.04l-0.09,0.38l-0.17,0.04l-0.4,0.31l-0.24,0.1l-0.34,0.18l-0.07,0.26L79.85,89l-0.21,0.18
		l-0.72,0.31l-0.41-0.01l-0.17-0.11l-0.3,0.04l-0.05-0.07l0.07-0.19l0.01-0.19l-0.09,0.17l-0.06,0.07l-0.26-0.1l0.16,0.16
		l-0.02,0.11l-0.09,0.05l-0.25-0.07l0.4,0.25l-0.11,0.13L77.83,90l-0.24,0.09l-0.31-0.29l0.25,0.34l-0.05,0.15l-0.15,0.15
		l-0.13-0.06l-0.1-0.2l-0.18,0.01l0.05,0.24l-0.02,0.08l0.05,0.1l-0.13,0.07l-0.1,0.11l-0.16-0.01L76.28,91l-0.14,0.08l-0.2-0.05
		l-0.09,0.16l-0.08,0.32l-0.22,0.15l-0.08-0.02l0.01,0.07l-0.73,0.23l-0.36-0.1l0.25-0.12l0.3-0.09l0.17-0.16l-0.17,0.04l-0.2-0.14
		l0.09-0.47l0.05-0.04l-0.09-0.04l0.08-0.2l0.03-0.5l0.28-0.35l0.48-0.29l0.15-0.14l-0.24,0.07l-0.32-0.09l-0.24,0.05l-0.14-0.11
		l-0.15,0.04l-0.29-0.12l0.06-0.07l0.02-0.26l-0.07-0.06l0.33-0.32l0.34-0.01l0.24-0.43l0.32,0.03l0.15,0.13l0.75-0.09l0.28,0.22
		l0.05,0.22l0.5,0.03l-0.11-0.34l0.08-0.21l-0.24-0.33l-0.34-0.14l0-0.56l0.34-0.19l0.57,0.09l0.19-0.28l0.49-0.24l0.44-0.07
		l0.09-0.19l0.26-0.07l0.28-0.43l-0.01-0.37l0.15-0.4l-0.07-0.32l0.13-0.47l-0.19-0.66l-0.26-0.18l-0.13-0.5l0.05,0l0.31-0.14
		l0.01-0.47l-0.09-0.23l-0.02-0.41l0.48-0.29l0.05-0.37l-0.23-0.06l-0.1-0.19l0.1-0.41l0.25-0.2l-0.07-0.25l-0.32,0.09l-0.15-0.06
		l-0.16-0.28l-0.35-0.07l-0.1-0.17l0.09-0.25l-0.22-0.13l-0.14,0.03l-0.18-0.24l-0.01-0.27l-0.13-0.3l-0.38-0.05l-0.19-0.13
		l-0.09-0.39l-0.42-0.6l0.05-0.23l-0.26-0.49l-0.42-0.26l-0.33-0.59l-0.31-0.07l-0.43-0.3l-0.48-0.09l-0.17-0.43l-0.25-0.03
		l-0.04-0.21l0.26-0.22l-0.28-0.41l-0.01-0.26l0.24,0.02l0.47-0.1l0.31-0.01l0.19-0.15l0.26-0.59l0.23-0.05l0.03-0.21l-0.43-0.16
		l0.04-0.28l-0.02-0.32l-0.39-0.13l-0.19-0.31l-0.44-0.05l-0.37,0.17l-0.37-0.16l-0.65-0.09l-0.26-0.57l-0.48-0.57l0.16-0.24
		l-0.01-0.34l-0.25-0.27l-0.21-0.42l-0.51-0.29L71.67,67.93L71.67,67.93z M73.45,88.82l0.15,0.23l-0.09,0.15l0.1,0.27l0.19-0.06
		l0.13-0.46l-0.1-0.05l-0.06-0.22L73.45,88.82z"/>
	<polygon class="st1" points="74.45,88.81 74.79,88.49 75.13,88.48 75.36,88.05 75.68,88.08 75.83,88.21 76.59,88.12 76.87,88.34 
		76.92,88.56 77.42,88.59 77.31,88.25 77.39,88.04 77.15,87.71 76.81,87.57 76.81,87.01 77.16,86.83 77.73,86.92 77.92,86.64 
		78.41,86.4 78.85,86.33 78.94,86.14 79.2,86.07 79.48,85.63 79.47,85.27 79.62,84.86 79.55,84.55 79.67,84.07 79.48,83.41 
		79.22,83.23 79.1,82.73 78.86,82.71 78.57,82.47 78.36,82.37 78.24,82.11 77.7,82.15 77.39,82.38 77.68,82.75 77.59,83.04 
		77.66,83.34 77.61,83.55 77.15,83.31 76.92,82.82 76.48,82.75 76.37,82.52 76.04,82.21 75.83,82.29 75.58,82.04 75.14,82.04 
		74.81,81.91 74.48,81.87 74.02,81.97 73.9,81.82 73.45,81.75 72.7,81.9 72.39,81.86 72.01,82.28 71.85,82.73 71.55,83.04 
		71.44,83.65 71.5,84.28 71.75,84.46 71.86,84.78 71.76,85.35 71.68,85.58 71.69,85.58 71.87,85.86 71.84,86.15 72.03,86.36 
		72,86.66 72.18,87 72.31,86.97 72.4,87.21 72.34,87.46 72.43,87.64 72.44,87.88 72.68,87.94 72.88,87.94 72.91,87.67 73.12,87.53 
		73.26,87.46 73.24,87.65 73.32,87.9 73.27,88.1 73.05,88.3 73.13,88.46 73.15,88.58 73.32,88.61 73.6,88.41 73.64,88.33 
		73.79,88.48 74.09,88.61 74.19,88.57 	"/>
	<polygon class="st1" points="69.9,69.37 70.08,69.54 70.18,69.81 70.6,69.74 70.86,69.84 70.82,69.44 70.84,69.06 70.77,68.72 
		70.81,68.19 71.05,68.07 71.07,67.85 71.66,67.9 71.74,68.14 72.25,68.43 72.46,68.85 72.72,69.12 72.73,69.47 72.57,69.71 
		73.05,70.28 73.31,70.85 73.96,70.94 74.33,71.1 74.7,70.93 75.14,70.99 75.33,71.29 75.72,71.42 75.74,71.74 75.7,72.02 
		76.13,72.18 76.1,72.4 75.87,72.45 75.61,73.03 75.42,73.18 75.12,73.19 74.65,73.3 74.41,73.28 74.43,73.54 74.71,73.95 
		74.45,74.17 74.49,74.38 74.74,74.41 74.91,74.84 75.39,74.94 75.82,75.24 76.13,75.31 76.46,75.9 76.88,76.16 77.14,76.65 
		77.09,76.88 77.51,77.48 77.59,77.87 77.78,77.99 78.17,78.04 78.3,78.34 78.31,78.62 78.49,78.85 78.63,78.83 78.85,78.96 
		78.76,79.21 78.87,79.38 79.21,79.44 79.37,79.73 79.52,79.79 79.84,79.71 79.91,79.95 79.66,80.15 79.56,80.56 79.66,80.75 
		79.9,80.82 79.85,81.19 79.37,81.48 79.39,81.89 79.47,82.12 79.46,82.59 79.15,82.73 78.86,82.71 78.57,82.47 78.36,82.37 
		78.24,82.11 77.7,82.15 77.39,82.38 77.68,82.75 77.59,83.04 77.66,83.34 77.61,83.55 77.15,83.31 76.92,82.82 76.48,82.75 
		76.37,82.52 76.04,82.21 76.22,82.15 76.45,81.95 76.54,81.39 76.46,81.13 76.61,80.85 76.61,80.65 76.76,80.31 76.71,80.09 
		76.35,79.79 76.48,79.63 76.22,79.48 75.93,79.43 75.65,79.03 75.39,78.79 75.5,78.56 75.58,78.13 75.46,77.74 75.59,77.56 
		75.68,77.3 75.57,76.94 75.22,76.61 74.61,76.04 74.44,75.57 73.76,75.3 73.23,75.35 72.81,76 72.15,75.99 71.92,75.62 71.6,75.6 
		71.12,75.27 70.6,75.43 70.51,75.74 70.12,75.79 69.66,75.96 69.74,75.14 69.8,74.6 69.72,74.2 69.93,73.99 69.97,73.74 
		69.83,73.42 70.05,73.08 70.07,72.81 69.5,72.73 69.2,72.92 68.97,72.8 68.79,72.38 69.06,72.23 69.05,71.68 68.79,71.28 
		68.36,71.33 68.23,70.94 68.46,70.57 68.63,70.59 68.97,70.37 68.85,70.15 69.06,69.93 69.11,69.63 69.56,69.6 	"/>
	<path class="st1" d="M68.23,70.94l0.13,0.39l0.43-0.05l0.26,0.4l0.01,0.55l-0.27,0.15l0.18,0.42l0.24,0.12l0.3-0.19l0.57,0.08
		l-0.02,0.27l-0.22,0.34l0.14,0.33l-0.04,0.25l-0.21,0.21l0.09,0.4l-0.07,0.54l-0.07,0.82l0.46-0.17l0.39-0.04l0.08-0.31l0.52-0.16
		l0.48,0.33l0.32,0.02l0.23,0.37L72.81,76l0.42-0.66l0.53-0.05l0.67,0.27l0.17,0.48l0.61,0.57l0.35,0.33l0.12,0.36l-0.09,0.26
		l-0.14,0.18l0.12,0.39l-0.08,0.43l-0.11,0.23l0.26,0.24l0.28,0.4l0.29,0.06l0.26,0.15l-0.12,0.16l0.36,0.31l0.04,0.22l-0.14,0.34
		l0,0.2l-0.15,0.28l0.08,0.26l-0.09,0.56l-0.23,0.2l-0.39,0.13l-0.24-0.25l-0.44,0l-0.33-0.13l-0.34-0.04l-0.46,0.1l-0.12-0.15
		l-0.45-0.07L72.7,81.9l-0.3-0.04l-0.38,0.42l-0.16,0.45l-0.3,0.32l-0.11,0.6l0.06,0.63l0.25,0.18l0.11,0.32l-0.1,0.57l-0.07,0.23
		l-0.13-0.03l-0.04,0.22l-0.06,0.02l-0.04-0.08l-0.29-0.31l-0.12-0.02l0.02-0.14l-0.18-0.12l-0.36-0.45l-0.21-0.11l-0.19,0.13
		l0.03,0.07l-0.04,0.06l-0.12-0.11l-0.32-0.12l-0.32,0.04l-0.21-0.1l-0.24-0.01l0.11-0.24l0.11-0.09l-0.11-0.26l0.07-0.41l0.1-0.08
		l-0.06-0.22l-0.26-0.09l-0.05-0.05l-0.1,0.02l-0.1-0.1l-0.25,0.08l-0.19-0.01l-0.1-0.11l-0.12,0.11l-0.18-0.02l-0.09-0.06
		l-0.01,0.07l-0.1,0.2l0.24,0.16l0.01,0.29l-0.2,0.25l-0.03,0.34l-0.08,0.18l0.11,0.11l-0.1,0.43l-0.26,0.26l-0.09,0.31l-0.26,0.3
		l-0.23,1.17l-0.43,0.43l-0.04,0.33l-0.19,0.29l0.16,0.05l0.04,0.08l-0.17,0.17l0.01,0.14l0.04,0.33l-0.03,0.21l0.25,0.48
		l-0.19,0.28l0.08,0.13l0.18-0.03l0.06-0.12l0.17-0.15l0.07,0.06l0.23,0.08l0.12,0.15l0,0.33l0.12,0.21l-0.07,0.33l0.16,0.08
		l0.12,0.37l0.17,0.02l0.02-0.17L67.53,91l0.05,0.25l0.14,0.28l-0.03,0.26l0.14,0.1l0.04,0.66l-0.07,0.08l-0.07,0.11l-0.06-0.11
		l-0.27,0.13l-0.07,0.22l0.43,0.23l0.08-0.22l0.09,0.08l0,0.28l0.18,0.2l0.39,0.49l0.17,0.17l0.14-0.07l0.31,0.07l0.28,0.15
		l0.15,0.48l0.14,0.24l0.26,0.22l0.02,0.15l-0.08,0.07l-0.03,0.28l-0.23,0.13l-0.19-0.21l-0.28,0l-0.39,0.26l-0.4-0.15l0.04-0.22
		l0.21-0.2l0.1-0.44l-0.18-0.23l-0.33-0.04l-0.06-0.19l-0.41-0.18L67.47,94l-0.23,0.23l-0.15,0.35l-0.1-0.23l-0.61-0.56l-0.01-0.13
		l0.15-0.14l0.03-0.16l-0.16-0.04l-0.07-0.27l-0.3-0.08l0.03-0.21l-0.29-0.52l-0.22-0.03l-0.11-0.59l-0.28-0.08l0.03-0.24
		l-0.16-0.15L65.04,91l-0.31,0.11l-0.02,0.3l-0.2-0.05l-0.11-0.23l-0.02-0.54l0.09-0.13l0.01-0.45l0.21-0.07l0.06-0.6l0.16,0.06
		l0.15-0.22l-0.17-0.06l0.26-0.29l-0.05-0.14l0.24-0.27l-0.17-0.05l0.13-0.5l0.11-0.22l0.18-0.23l0.09-0.39l0.37-0.21l0.49-0.94
		l0.19-0.09l0.09-0.51l-0.16-0.37l0.08-0.45l-0.1-0.3l-0.01-0.47l-0.16-0.21l0.08-0.33l-0.03-0.31l0.14-0.24l-0.12-0.69l-0.38-0.47
		l-0.43-0.43l-0.34-0.55l0.02-0.28l-0.16-0.57l0.35-0.15l0.07-0.23l-0.08-0.82l0.15-0.21l0.31-0.12l0.01-0.32l-0.31-0.2l-0.01-0.34
		l-0.13-0.43l-0.24-0.12l-0.27-0.85l-0.37-0.33l-0.06-0.25l-0.2-0.24l-0.2-0.48l-0.23-0.1l0-0.25l0.42-0.12l0.32-0.18l-0.08-0.27
		l0.06-0.46l0.25-0.19L65,72.39l0.29-0.31l0.55,0.31l0.4-0.25l0.34,0.05l0.12-0.15l0.06-0.39l0.22-0.16l0.39,0.1l0.14-0.15
		l-0.14-0.25l0.03-0.17l0.36-0.08l0.46,0.03L68.23,70.94L68.23,70.94z M66.24,94.02l0.09,0.26l0.12-0.03l-0.02-0.2l-0.11-0.07
		L66.24,94.02L66.24,94.02z M65.45,92.37l0.02,0.33l0.07-0.16l-0.01-0.14L65.45,92.37L65.45,92.37z M64.44,91.45l-0.09,0.19
		l0.05,0.14l-0.06,0.32l0.24-0.24l0.05-0.38C64.63,91.48,64.47,91.45,64.44,91.45L64.44,91.45z M70.94,85.46l-0.01,0.27l0.2,0.21
		l0.17-0.01L70.94,85.46L70.94,85.46z M67.4,88.92l-0.29,0.07l0.2,0.09L67.4,88.92L67.4,88.92z M67.43,89.26l-0.24,0.12l0,0.21
		l0.2,0.22l0.11-0.31L67.43,89.26z"/>
	<path class="st1" d="M63.85,56.9l0.28-0.1l0.34,0.2l0.25-0.11l0.36,0.06l0.15,0.44l0.28,0.26l0.03,0.49l0.27,0.02l0.24,0.35
		l-0.06,0.47l0.19,0.56l-0.02,0.48l-0.17,0.65l-0.04,0.31l-0.09,0.18l-0.31,0.1l-0.07,0.29l-0.15,0.03l-0.1,0.2l0.1,0.32l-0.15,0.16
		l-0.19-0.1l-0.24,0.2l-0.16,0.25l0.11,0.22l-0.17,0.22l-0.03,0.26l0.25,0.15l0.09,0.22l0.19,0.23l-0.09,0.37l0.1,0.38l0.4-0.22
		l0.73-0.06l0.04,0.26l-0.12,0.18l0.17,0.18l0.42-0.05l0.05,0.28l-0.13,0.26l0.15,0.27l0.39,0.14l-0.1,0.14l0.1,0.22l0.07-0.12
		l0.44,0l0.29,0.24l-0.03,0.24l-0.17,0.25l-0.02,0.23l-0.42,0.46l-0.33,0.26L66.99,68l0.25-0.08l0.49,0.12l0.07,0.1l0.26-0.18
		l0.18,0.31l-0.14,0.4l0.06,0.3l0.34,0.22l0.24-0.18l0.35,0.04l0.74-0.22l0.29,0.14l-0.07,0.29l-0.48,0.33l-0.45,0.04l-0.05,0.29
		l-0.21,0.22l0.12,0.22l-0.35,0.22l-0.17-0.02l-0.24,0.4l-0.46-0.03l-0.36,0.08l-0.03,0.17l0.14,0.25l-0.14,0.15l-0.39-0.1
		l-0.22,0.16l-0.06,0.39l-0.12,0.15l-0.34-0.05l-0.4,0.25l-0.55-0.31L65,72.39l0.01,0.55l-0.25,0.19l-0.06,0.46l0.08,0.27
		l-0.32,0.18l-0.42,0.12l0,0.25l0.23,0.1l0.2,0.48l0.2,0.24l0.06,0.25l0.37,0.33l0.27,0.85l0.24,0.12l0.13,0.43l0.01,0.34l0.31,0.2
		l-0.01,0.32l-0.31,0.12l-0.15,0.21l0.08,0.82l-0.07,0.23l-0.35,0.15l0.16,0.57l-0.02,0.28l0.34,0.55l0.43,0.43l0.38,0.47l0.12,0.69
		l-0.14,0.24l0.03,0.31l-0.08,0.33l0.16,0.21l0.01,0.47l0.1,0.3l-0.08,0.45l0.16,0.37l-0.09,0.51l-0.19,0.09l-0.49,0.94l-0.37,0.21
		l-0.09,0.39l-0.18,0.23l-0.11,0.22l0.01-0.05l-0.18,0.3l-0.09,0.46l-0.09-0.5l0.04-0.45l-0.08-0.2l0.01-0.15L65,87.31l0.13-0.09
		l0.23-0.29l0.03-0.25l-0.08-0.1l0.1-0.4l0.11-0.03l0.1-0.18l-0.09-0.44l0.23-0.14l-0.2-0.28l-0.13-0.24l0.04-0.4l0.12-0.14
		l-0.06-0.29l-0.14-0.14l0.01-0.97l-0.19-0.21l-0.03-0.34l-0.18-0.41l-0.12,0.49l-0.1,0.06l0.05-0.27l-0.11-0.3l0.11-0.68l-0.19-0.3
		l0.02-0.32l0.13-0.1l-0.36-0.27l0.06-0.54l-0.1-0.03l0.01-1.17l-0.17-0.15l-0.02-0.3l0.12-0.03l0.02-0.19l-0.14-0.39l0.1-0.13
		l0.03-0.18l-0.13,0.18L64,77.38l-0.27-0.03l-0.04-0.39l-0.11-0.18l-0.23-0.64l-0.04-0.17l-0.15-0.03l0.02-0.18l-0.26-0.2l0.15,0.22
		L63,75.89l-0.05,0.17l0.16,0.15l-0.07,0.31l-0.16,0.14l0.04,0.2l-0.44,0.28l-0.25-0.08l-0.15-0.25l-0.11-0.01l0.09,0.26l-0.04,0.1
		l0.24,0.1l-0.37,0.16l-0.22-0.03l-0.14-0.12l-0.12,0.26l-0.68,0.35l-0.3-0.07l-0.06,0.06l-0.16-0.02l0-0.08l-0.05,0.15l-0.16,0.02
		l-0.15-0.25l-0.45,0.17l-0.07,0.21l-0.18-0.01l0.05-0.42l0.46-0.34l0.09-0.5l-0.25,0.44l-0.37,0.24l-0.28,0.35l-0.02-0.15
		l0.06-0.11l-0.05-0.34l0.45-1.51l0.38-0.18l-0.12-0.16l-0.19-0.72l0.04-0.62l-0.14-0.09l-0.07-0.18l0.1-0.05l-0.2-0.2l-0.06-0.46
		l-0.15-0.26l-0.09-0.26l0.03-0.27l-0.35-0.28l0.1,0.28l0,0.55L58,72.56l-0.23-0.36l0-0.18l-0.26-0.3l-0.02-0.17l0.28,0.06
		l0.08,0.25l0.22,0.15l0.11-0.09l-0.09-0.06l-0.2-0.24l0.25-0.11l0.15,0.2l0.2-0.05l0.02-0.26l-0.25-0.49l-0.47-0.15l-0.1-0.22
		l-0.27-0.08l-0.05-0.21l-0.06,0.2l-0.29,0l-0.01-0.13l0.27-0.24l-0.3-0.01l-0.22-0.23l-0.02,0.14l0.12,0.29l-0.61-0.7l-0.07-0.43
		l-0.11-0.35l-0.01,0.01l-0.01-0.11l0.09-0.29l0.35-0.33l0.11,0.09l0.22-0.36l0.07-0.54l0.1-0.28l0.14,0.09l0.18-0.07l0.24-0.49
		l-0.04-0.32l0.1-0.37l0-0.42l0.32,0.09l0.1-0.56l0.06-0.4L58,63.71l0.32,0.06l0.26,0.12L59,63.94l0.32-0.55l0.23-0.64l0.44-0.78
		l-0.35-0.23l0.01-0.24l0.53-0.65l0.29-0.59l-0.13-0.22l0.12-0.36l0.62-0.74l0.36-0.08l0.43-0.41l0.2-0.35l0.52-0.09l0.48-0.26
		l0.23,0.25l0.29,0.17l-0.05-0.27l0.05-0.42l0.34-0.24l0-0.24L63.85,56.9L63.85,56.9z M57.61,72.82l0.06,0.24l0.29,0.22l0.11-0.26
		l-0.22-0.28L57.61,72.82z"/>
	<path class="st1" d="M35.25,88.22l0.1-0.35l0.01-0.27l0.19-0.05l-0.03,0.07l-0.09,0.03l0.03,0.25L35.25,88.22L35.25,88.22z
		 M36.18,85.66l-0.37-0.31l0.02-0.19l0.51,0.03l0.07,0.07l-0.15,0.26l-0.09,0.01L36.18,85.66L36.18,85.66z M36.58,85.35l0.22,0.09
		l0.03,0.24l0.33,0.27l0.05,0.16l-0.14-0.14l-0.26-0.03l-0.13-0.14l-0.3-0.18l0.03-0.11l0.18,0l-0.09-0.07L36.58,85.35L36.58,85.35z
		 M36.27,85.78l-0.02,0.08l0.05,0.11l-0.05,0.06l-0.09,0.01l0.02,0.11l-0.04,0.21l-0.19,0.26l-0.09-0.05L35.7,86.4l-0.19-0.05
		l-0.01,0.08l0.15,0.1l0.08,0.15l-0.07,0.07l0.09,0.31l-0.05,0.42l-0.12,0.14l-0.18,0.69l0.01,0.2l-0.09,0.07l0.07,0.6L35.3,89.4
		l0.11,0.77l0.14,0.86l0.17,0.39l0.35,0.24l0.32-0.04l0.54,0l0.51-0.09l0.57-0.46l0.27-0.42l0.14-0.26l0-0.26l0.08-0.08l0.04-0.42
		l-0.11-0.2l0.11-0.23l-0.21-0.23l-0.17-0.73l-0.14-0.51l-0.28,0l0-0.06l-0.23-0.05l0.33-0.13l-0.03-0.15l-0.12-0.08l-0.16-0.39
		l-0.15-0.01l-0.06-0.31l-0.08-0.13l0.02-0.18l-0.43-0.22l-0.1,0.1l-0.19-0.1l0.04-0.11L36.27,85.78z"/>
	<path class="st1" d="M35.13,45.81l0.08,0.21l-0.01,0.26l0.39,0.26l-0.14,0.6l0.13,0.31l-0.12,0.18l0.15,0.13l0.16,0.29l-0.03,0.24
		l0.14,0.06l0.06,0.35l0.33,0.21l0.22-0.27l0.35,0.05l0.12,0.19L37.3,49l0.26,0.36l0.23,0.11l0.13,0.39l0.26,0.08l0.08,0.27
		l0.03-0.03l-0.02,0.54l-0.35,0.8l-0.06,0.52l-0.43,0.5l0.04,0.4l0.33,0.08l0.24,0.26l0.28,0.05l0.25,0.22l0.53,0.23l0.66,0.56
		l0.4,0.64l0.59,0.21l0.27,0.25l0.43,0.05l0.48,0.4l0.8,0.03l0.24,0.28l0.84-0.12l0.72,0.27l0.04,0.42l0.36,0.41l0.8,0.33l0.31-0.12
		l0.54,0.04l1.29,0.66l0.36-0.14l0.55,0.39l0.99-0.08l0.2-0.71l-0.22-0.64l0.23-0.73l-0.06-0.35l0.04,0.01l0.31-0.21l0.36,0
		l0.14,0.35l-0.03,0.4l0.28,0.26l0.02-0.01l-0.09,0.35l-0.14,0.24l0.24,0.52l0.51,0.18l0.23-0.11l0.71,0.53l0.42,0.05l0.36-0.34
		l0.35,0l0.31,0.19l0.58-0.09l0.42,0.08l0.65-0.12l0.02-0.25l0.05-0.44l-0.46-0.27l-0.01-0.32l0.15-0.36l0.21,0.01l0.59-0.06
		l0.26,0.01l0.2-0.36l0.25-0.15l0.23,0.11l0.03-0.2l0.34-0.05l0.15-0.31l0.3-0.29l0.34-0.01l0.59-0.06l0.4-0.39l0.02-0.34l0.23-0.02
		l0.38-0.2l0.23,0.44l0.42-0.06l0.57,0.26l0.19-0.14l-0.01-0.29L62,54.04l0.24,0.11l0.14,0.25l0.22-0.03l0.05,0.15l-0.28,0.4
		l0.09,0.26l0.2-0.03l0.21-0.03l0.04,0.24l0.19,0.33l-0.03,0.21l-0.28,0.24l0.05,0.27l0.33,0.1l0.2-0.05l0.28,0.16l0.27,0.36l0,0.24
		l-0.34,0.24l-0.05,0.42l0.05,0.27l-0.29-0.17l-0.23-0.25l-0.48,0.26l-0.52,0.09l-0.2,0.35l-0.43,0.41l-0.36,0.08l-0.62,0.74
		l-0.12,0.36l0.13,0.22l-0.29,0.59l-0.53,0.65l-0.01,0.24l0.35,0.23l-0.44,0.78l-0.23,0.64L59,63.94l-0.42-0.04l-0.26-0.12L58,63.71
		l0.1,0.79l-0.06,0.4l-0.1,0.56l-0.32-0.09l0,0.42l-0.1,0.37l0.04,0.32l-0.24,0.49l-0.18,0.07l-0.14-0.09l-0.1,0.28l-0.02,0.17
		l-0.05-0.06l-0.06-0.14l0.01-0.17l-0.05-0.11l-0.08-0.25l-0.07-0.43l-0.01-0.64l-0.08-0.25l0.04-0.33l-0.05-0.45l-0.11-0.24
		l-0.06-0.16l-0.27-0.01l-0.18-0.16l-0.15,0.1l0.08,0.16l-0.11,0.13l-0.03,0.17l-0.19,0.22l0.09,0.09l-0.06,0.24l-0.16-0.01
		l-0.2-0.35l-0.22-0.27l-0.04-0.17l-0.14-0.17l-0.11-0.44l0.02-0.19l0.14-0.09l0.08-0.2l0.32-0.17l0.1,0.13l0.17,0.05l0.14-0.14
		l0.03-0.2l0.2-0.08l0.27-0.49l0.1-0.37l0.21-0.3l-0.15-0.09l-0.23-0.31L55.8,61.3l-0.1-0.09l-0.26-0.01l-0.53-0.04l-0.46-0.11
		l-0.63-0.03l-0.4-0.05l-0.31-0.19l-0.29-0.01l-0.28-0.15l0.04-0.22l-0.08-0.35l-0.02-0.2l-0.02-0.38l-0.17-0.41l-0.16,0.01
		l-0.04,0.11l-0.29-0.14l-0.14-0.18l-0.2-0.22l-0.13-0.03l-0.09,0.17l0.21,0.16L51.27,59l-0.32-0.09l-0.19-0.31l0.03-0.17
		l-0.18-0.27l-0.1-0.19l-0.12,0.21l-0.14-0.01l-0.02,0.21l0.14,0.15l-0.2,0.39l-0.35,0.31l-0.09,0.37l0.7,0.35l0.29-0.08l0.4,0.08
		l-0.09,0.18l0.04,0.42l-0.22,0.13l-0.18-0.09l-0.24,0.11l-0.19,0.4l-0.3,0.03l-0.09,0.62l0.3,0.46l0.38,0.21l0.32,0.53l-0.06,0.52
		l0.1,0.41l-0.09,0.27l0.02,0.49l0.37,0.69l-0.05,0.42l0.07,0.27l-0.01,0.49l-0.08,0.02l0.13,0.37l-0.2,0.26l-0.21-0.29l-0.02,0.17
		l-0.16-0.12l-0.07-0.37l-0.04-0.19l-0.05,0.13l-0.07,0.18l-0.03-0.08l-0.07,0.1l-0.24-0.03l-0.03,0.05l-0.25-0.12l-0.03-0.4
		l0.09-0.23l-0.21-0.24l-0.27-0.03l0.01,0.09l0.18,0.07l0.11,0.16l-0.1,0.08l-0.12,0.21l-0.05,0.22l-0.26,0.23L48.15,67l-0.18,0.11
		l-0.09,0.23l-0.19,0.29l0.03,0.19l0.12,0.35l-0.03,0.1l0.09,0.06l-0.39,0.26l-0.12,0.27l-0.17,0l0.04,0.2l-0.62,0.34l-0.05,0.2
		l-0.9,0.33l-0.08-0.13l0.01-0.16l-0.06-0.08l-0.12-0.01l-0.29,0.18l-0.17,0l-0.12,0.4l0.27-0.07l0.1-0.1l0.13,0.09l-1.18,0.81
		l-0.36,0.71l-1.53,0.95l-0.26,0.37l-0.36,0.28l-0.61,0.13l-0.48,0.31l-0.09,0.32l0.01,0.37l-0.31,0.34l-0.39,0.19l-0.68-0.19
		l-0.34,0.22l-0.04,0.33l-0.49,0.49l-0.23-0.05l-0.14-0.26l-0.13-0.02l-0.58,0.45l-0.19,0.26l-0.06,0.56l0.16,0.8l-0.28,0.25
		l-0.01,0.43l-0.15,1.2l0.37,0.18L37,80.26l-0.48,0.98l-0.49,0.67l-0.07,0.6l0.12,0.25l-0.04,1.31l-0.04,0.35l-0.31,0.07l-0.15-0.1
		l-0.42,0.01l-0.21,0.29l0.06,0.14l-0.47,0.48l-0.16,0.16l0.02,0.21l0.48,0.32l0.05,0.1l0,0.11l-0.05-0.15l-0.23-0.12l-0.69,0.15
		l-0.1-0.02l-0.57,0.17l-0.21,0.26l-0.04,0.16l-0.08,0.06l0.06,0.13l-0.19,0.39l-0.66,0.3l-0.5-0.11l-0.43-0.39l-0.39-0.6
		l-0.41-1.22l0.04-0.65l-0.09-0.61l-0.27-0.69l0.04-0.29l-0.13-0.03l-0.1-0.46l-0.08-0.55l-0.39-0.59l-0.22-0.47l-0.12-0.03
		l-0.37-0.5l-0.14-0.42l-0.13-0.15l0.03-0.65l-0.14-0.29l-0.18-0.74l-0.02-0.49l-0.12-0.36L27.83,77l0.03-0.57l-0.09-0.04
		l-0.34-0.51l0.02-0.18l-0.1-0.04l-0.28-0.7l0.01-0.2l-0.19-0.14l-0.06-0.47l-0.24-0.2l-0.16-0.7l0.1-0.87l-0.5-1.37l0.05-0.42
		l-0.24-0.48l0.34,0.02l-0.39-0.65l0.05-0.33l0.22-0.02l-0.14-0.24l0.01-0.29l-0.37-0.91l-0.01-0.54l0.3-0.11l-0.23-0.17l0.02-0.27
		l0.21-0.33l0.02-0.45l-0.09-0.47l-0.16-0.14l-0.04-0.75l0.36-0.16l0.14-0.16l0.25,0.03l-0.26-0.09l-0.37,0.01l-0.19-0.04l0.07-0.29
		l-0.12-0.28l0.09-0.3l0.09-0.05l0.2,0.07l0.29-0.23l0.15-0.18L26,62.92l-0.18-0.11l-0.38,0l-0.09-0.27l-0.07,0.19l-0.06,0.31
		l-0.3,0.57l0.19,0.32l-0.12,0.55l-0.27,0.22l-0.03,0.17l-0.56,0.2l-0.87,0.4l-0.39,0.08l-0.55-0.19l-1.08-1.11l-0.41-0.71
		l0.01-0.11l-0.15-0.01l-0.19-0.14l-0.6-0.77l-0.03-0.22l0.08-0.16l0.19,0.01l0.05,0.1l0.2-0.04l-0.05,0.35l0.25,0.06l0.19-0.13
		l0.1,0l0.16,0.13l0.05-0.11l0.7-0.43l0.19,0.02l0.36-0.42l0.09,0.03l0.16-0.28l-0.31-0.06l-0.09-0.06l0.03,0.11l-0.05,0.13
		l-0.68,0.2l-0.38-0.05l-0.31,0.06l-0.97-0.48l-0.42-0.57l-0.19-0.12l0.06-0.31l0.36-0.36l0.36-0.15l-0.44,0.02l-0.47,0.22l0.07-0.4
		l0.35-0.17l0.22-0.03L19.94,59l0.23,0.09l0.27-0.1l1.06,0.19l0.64-0.15l0.14-0.12l0.37-0.07l-0.15,0.21l0.12,0.2l0.37-0.17
		l0.3-0.06l-0.11-0.16l0.07-0.22l-0.23-1.03l-0.25-0.44l0.1-0.2l-0.19-0.21l-0.31-0.02l-0.46-0.39l0-0.58l0.07-0.38l-0.16-0.51
		l-0.29-0.05l-0.18,0.07l-0.35-0.17l-0.26-0.02l0.05-0.39l0.32-0.6l0.25-0.05l0.49-0.54l0.1-0.26l0.31-0.11l0.22-0.12l0.32,0.19
		l0.03,0.31l0.22,0.07l0.62-0.23l0.83,0.06l0.56-0.49l0.42-0.88l0.78-0.42l0.22-0.31l0.13-0.5l0.41-0.45l0.54-0.18l0.22-0.36
		l0.02-0.29l-0.18-0.18l0.51-0.44l0.27-0.16l0.09-0.36l0.17-0.76l-0.09-0.59l-0.07-0.15l0.55-0.41l0.3-0.06l0.32-0.15l0.19,0.06
		l0.46-0.4l0.55-0.71l0.51-0.36l0.4,0.03l0.25-0.35l0.33,0.04l0.78,0.68l0.48-0.19l0.41,0.22l0.1,0.45l0.4,0.03l0.58,0.47
		L35.13,45.81L35.13,45.81z M50.47,66.94l-0.03,0.27l0.11-0.09L50.47,66.94L50.47,66.94z M50.32,66.81l-0.19,0.07l0.04,0.19
		l0.1,0.09l0.06-0.19L50.32,66.81L50.32,66.81z M49.89,66.82l0,0.31l0.15,0.14l-0.01-0.29L49.89,66.82L49.89,66.82z M49.44,66.87
		l-0.01,0.16l0.12-0.04l0.19-0.35l-0.08-0.17L49.44,66.87z"/>
	<path class="st1" d="M56.87,67.43l-0.05,0.37l-0.22,0.36l-0.11-0.09l-0.35,0.33l-0.09,0.29l0.01,0.11l-0.03,0.03l0.02,0.4
		l-0.05,0.02l-0.16-0.58l-0.23-0.44l-0.11-0.18l0.11-0.18l0.04-0.25l-0.06,0.12l-0.21,0.15l-0.05-0.1l0.14-0.45l-0.1-0.08l0.11-0.34
		l0.04-0.21l-0.18-0.17L55,65.4l-0.13-0.02l0,0.1l-0.1-0.06l-0.32,0.14l-0.52-0.33l-0.05-0.11l-0.18-0.01l-0.25-0.29l-0.07-0.48
		l-0.01,0.55l0.17,0.34l-0.07,0.16l-0.33,0.08l0.19,0.11l0.17,0.37l-0.08,0.42l-0.31,0.08l-0.31,0.44l-0.22-0.2l0.18-0.25l0.14-0.04
		l0.09-0.13l-0.24,0.08l-0.23,0.29l-0.17-0.32l0.22-0.5l0.01-0.1l-0.09-0.15l0.05,0.16l-0.15,0.18l-0.07,0.32l-0.09,0l0.12,0.38
		l-0.06,0.27l-0.16,0.07l-0.02-0.05l-0.19-0.16l-0.14,0.04l-0.1,0.22l-0.18-0.02l-0.05-0.16l-0.09-0.31l-0.16,0.03l0.01-0.49
		l-0.07-0.27l0.05-0.42l-0.37-0.69l-0.02-0.49l0.09-0.27l-0.1-0.41l0.06-0.52l-0.32-0.53l-0.38-0.21l-0.3-0.46l0.09-0.62l0.3-0.03
		l0.19-0.4l0.24-0.11l0.18,0.09l0.22-0.13l-0.04-0.42l0.09-0.18l-0.4-0.08l-0.29,0.08l-0.7-0.35l0.09-0.37l0.35-0.31l0.2-0.39
		l-0.14-0.15l0.02-0.21l0.14,0.01l0.12-0.21l0.1,0.19l0.18,0.27l-0.03,0.17l0.19,0.31L51.27,59l0.17-0.06l-0.21-0.16l0.09-0.17
		l0.13,0.03l0.2,0.22l0.14,0.18l0.29,0.14l0.04-0.11l0.16-0.01l0.17,0.41l0.02,0.38l0.02,0.2l0.08,0.35l-0.04,0.22l0.28,0.15
		l0.29,0.01l0.31,0.19l0.4,0.05l0.63,0.03l0.46,0.11l0.53,0.04l0.26,0.01l0.1,0.09l0.19-0.02l0.23,0.31l0.15,0.09l-0.21,0.3
		l-0.1,0.37l-0.27,0.49l-0.2,0.08l-0.03,0.2l-0.14,0.14l-0.17-0.05l-0.1-0.13l-0.32,0.17l-0.08,0.2l-0.14,0.09l-0.02,0.19l0.11,0.44
		l0.14,0.17l0.04,0.17l0.22,0.27l0.2,0.35l0.16,0.01l0.06-0.24l-0.09-0.09l0.19-0.22l0.03-0.17l0.11-0.13l-0.08-0.16l0.15-0.1
		l0.18,0.16l0.27,0.01l0.06,0.16l0.11,0.24l0.05,0.45l-0.04,0.33l0.08,0.25l0.01,0.64l0.07,0.43l0.08,0.25l0.05,0.11l-0.01,0.17
		l0.06,0.14L56.87,67.43L56.87,67.43z M54.91,65.92l-0.09-0.12l-0.14,0.06l0,0.33l0.16-0.05L54.91,65.92L54.91,65.92z M54.11,65.74
		l0.12,0.34l-0.07,0.25l0.11,0.22l0.26-0.38l-0.05-0.26l-0.36-0.33C54.13,65.59,54.13,65.71,54.11,65.74L54.11,65.74z M53.82,65.47
		l-0.3,0.09l-0.01,0.14l0.16,0.49l0.28,0.05l0.02-0.46L53.82,65.47z"/>
	<polygon class="st1" points="51.03,56.62 51.36,56.51 51.79,55.87 52.61,55.51 53.11,55.51 53.24,55.78 53.98,55.95 54.26,56.13 
		54.68,56.02 55.07,56.08 55.29,56.45 55.36,56.45 55.21,56.81 55.21,57.13 55.67,57.41 55.62,57.84 55.6,58.09 54.94,58.22 
		54.52,58.14 53.94,58.23 53.63,58.04 53.28,58.04 52.92,58.39 52.5,58.34 51.79,57.8 51.56,57.91 51.05,57.73 50.8,57.21 
		50.95,56.97 	"/>
	<polygon class="st1" points="38.3,50.18 38.37,50.1 38.8,50.39 38.9,50.58 39.21,50.6 39.37,50.7 39.6,50.45 39.98,50.46 
		40.53,50.74 40.67,50.92 41.03,50.99 41.25,51.19 41.65,51.73 42.01,51.78 42.32,51.99 42.42,52.21 42.66,52.57 42.75,52.92 
		42.92,52.88 43.01,52.42 43.21,52.27 43.31,52.42 43.63,52.46 43.93,52.7 43.92,53.14 44.26,53.52 44.77,53.45 45.16,53.55 
		44.99,54.18 45.13,54.56 45.39,54.54 45.8,54.81 46.01,54.66 46.36,54.6 46.68,54.32 47.26,54.46 47.62,54.7 47.66,55.08 
		48.1,55.32 48.36,55.78 48.62,55.88 49.03,55.76 49.18,55.85 49.63,55.77 49.91,55.82 49.97,56.17 49.74,56.9 49.96,57.54 
		49.76,58.24 48.77,58.33 48.22,57.94 47.86,58.08 46.57,57.42 46.03,57.37 45.72,57.49 44.92,57.17 44.56,56.76 44.52,56.34 
		43.8,56.07 42.96,56.19 42.72,55.91 41.93,55.88 41.45,55.48 41.02,55.43 40.75,55.18 40.16,54.97 39.76,54.33 39.1,53.77 
		38.57,53.55 38.33,53.32 38.05,53.28 37.81,53.02 37.47,52.94 37.43,52.54 37.86,52.05 37.92,51.53 38.27,50.73 	"/>
	<polygon class="st1" points="19.12,59.98 19.18,59.58 19.53,59.41 19.75,59.38 19.94,59 20.17,59.08 20.44,58.98 21.5,59.17 
		22.14,59.02 22.29,58.9 22.66,58.83 22.51,59.04 22.63,59.24 23.01,59.07 23.31,59.01 23.2,58.85 23.28,58.63 23.05,57.6 
		22.8,57.15 22.9,56.95 22.71,56.74 22.41,56.73 21.94,56.34 21.94,55.76 22.01,55.38 21.85,54.87 21.56,54.82 21.38,54.89 
		21.02,54.72 20.77,54.7 20.81,54.31 21.14,53.71 21.38,53.66 21.87,53.12 21.97,52.86 22.28,52.75 22.5,52.63 22.82,52.81 
		22.85,53.13 23.07,53.2 23.69,52.97 24.52,53.02 25.08,52.54 25.5,51.65 26.28,51.24 26.5,50.92 26.63,50.43 27.04,49.97 
		27.57,49.79 27.79,49.43 27.81,49.14 27.63,48.95 28.14,48.52 28.41,48.36 28.5,47.99 28.68,47.23 28.59,46.63 28.52,46.49 
		29.07,46.08 29.37,46.01 29.69,45.86 29.88,45.92 30.23,45.61 30.23,45.27 29.85,45.12 29.46,45.22 29,45.06 28.86,44.64 
		28.34,44.34 27.77,44.13 27.27,43.55 27.25,43.08 27.14,42 26.91,41.5 26.96,41.02 27.23,40.94 27.32,40.62 27.79,40.39 
		27.83,40.01 27.39,39.83 27.34,39.5 26.96,39.21 26.58,38.79 26.31,38.36 25.98,38.44 25.75,38.5 25.55,38.26 25.56,37.63 
		26.37,37.22 26.3,36.94 25.84,36.98 25.51,36.73 24.96,36.94 24.54,37.23 24.11,37.17 23.81,37.52 23.49,37.78 24.04,38.85 
		24,39.53 23.14,40.41 23.47,40.81 23.42,41.24 22.94,41.8 22.36,41.73 21.82,41.43 21.41,41.63 21.53,42.06 21.84,42.28 
		21.97,42.73 21.87,42.99 21.48,43.14 21.13,43.13 20.97,43.34 20.86,43.89 20.71,44.23 20.67,44.44 20.54,44.57 20.57,45.27 
		20.17,45.72 19.92,45.31 19.74,45.29 19.69,45.5 19.31,45.43 19.15,45.28 18.78,45.27 18.65,45.46 18.01,45.84 18.26,45.95 
		18.05,46.15 17.45,46.34 17.28,46.19 16.89,46.22 16.75,46.44 16.65,46.68 16.35,46.75 16.11,46.98 16.08,47.41 16.13,47.93 
		16.07,48.25 16.16,48.57 16.05,48.85 15.4,49.04 14.87,48.96 14.36,48.96 13.53,48.91 12.96,48.98 12.75,49.12 12.26,49.03 
		11.72,49.11 9.92,48.93 7.86,48.06 7.85,48.07 8.53,49.24 8.66,49.63 9.01,50.1 9.38,50.36 9.5,50.54 10.01,50.65 10.29,50.8 
		10.31,50.97 10.73,51.07 10.68,51.6 10.74,51.97 10.71,52.4 10.76,52.69 11.14,52.71 11.51,53.03 11.48,53.64 11.23,53.83 
		10.85,53.62 10.07,53.75 9.89,53.9 9.39,54.04 9.2,54.32 9.24,54.6 8.97,54.89 9.07,55.29 8.93,55.84 8.91,56.09 9.09,56.11 
		9.05,56.33 9.18,56.41 9.66,56.19 10.02,56.22 10.03,56.36 10.16,56.33 10.41,56.17 10.75,56.23 10.9,56.3 11.16,56.26 
		11.35,56.31 11.53,56.33 11.58,56.17 11.73,56.02 12.01,56.26 12.23,56.28 12.28,56.16 12.44,56.22 12.51,56.4 12.76,56.43 
		12.95,56.61 13.2,56.64 13.59,56.35 14.01,56.4 14.24,56.5 14.5,56.38 14.75,56.41 14.81,56.29 14.91,56.4 15.35,56.52 
		15.75,56.42 16.21,56.47 16.51,56.77 16.6,57.13 16.52,57.38 16.56,57.44 16.48,57.46 16.47,57.57 16.73,57.61 17.21,57.46 
		17.17,57.78 17.46,58.22 17.48,58.78 17.53,58.84 17.49,59.05 17.37,59.12 17.46,59.17 17.58,59.19 17.65,59.53 17.94,59.54 
		18.38,59.58 18.9,59.92 18.85,60.11 	"/>
	<polygon class="st1" points="30.23,45.61 30.34,45.52 30.89,44.81 31.4,44.45 31.8,44.48 32.05,44.13 32.37,44.17 33.15,44.85 
		33.63,44.66 34.04,44.88 34.14,45.33 34.54,45.35 35.12,45.82 35.64,45.4 35.89,45.52 35.92,45.74 36.16,45.44 36.13,44.87 
		36.03,44.16 35.64,44.01 35.42,43.27 35.55,42.54 35.37,42.12 34.88,41.79 34.53,41.27 34.36,40.48 33.89,40.14 33.3,39.87 
		33.28,39.5 33,39.38 32.38,39.32 31.76,39.16 31.63,38.93 31.38,38.71 31.42,38.29 31.04,37.96 30.46,36.86 30.35,36.34 
		30.15,36.09 29.96,36.06 29.79,36.19 29.6,36.3 29.34,36.24 29.17,36.33 28.91,36.04 28.69,36.07 28.54,36.14 28.55,36.15 
		28.17,36.65 27.43,36.85 26.3,36.94 26.37,37.22 25.56,37.63 25.55,38.26 25.75,38.5 25.98,38.44 26.31,38.36 26.58,38.79 
		26.96,39.21 27.34,39.5 27.39,39.83 27.83,40.01 27.79,40.39 27.32,40.62 27.23,40.94 26.96,41.02 26.91,41.5 27.14,42 
		27.25,43.08 27.27,43.55 27.77,44.13 28.34,44.34 28.86,44.64 29,45.06 29.46,45.22 29.85,45.12 30.23,45.27 	"/>
	<polygon class="st1" points="26.04,35.64 26.81,35.28 27.27,35.23 27.31,35.57 27.9,35.57 28.13,35.35 28.79,35.43 28.83,35.7 
		28.31,36.05 28.55,36.15 28.17,36.65 27.43,36.85 25.84,36.98 25.51,36.73 24.96,36.94 24.54,37.23 24.11,37.17 23.81,37.52 
		23.49,37.78 24.04,38.85 24,39.53 23.14,40.41 23.47,40.81 23.42,41.24 22.94,41.8 22.36,41.73 21.82,41.43 21.41,41.63 
		21.53,42.06 21.84,42.28 21.97,42.73 21.87,42.99 21.48,43.14 21.13,43.13 20.97,43.34 20.86,43.89 20.71,44.23 20.67,44.44 
		20.54,44.57 20.57,45.27 20.17,45.72 19.92,45.31 19.74,45.29 19.69,45.5 19.31,45.43 19.15,45.28 18.78,45.27 18.65,45.46 
		18.01,45.84 18.26,45.95 18.05,46.15 17.45,46.34 17.28,46.19 16.89,46.22 16.75,46.44 16.65,46.68 16.35,46.75 16.11,46.98 
		16.08,47.41 16.13,47.93 16.07,48.25 16.16,48.57 16.05,48.85 15.4,49.04 14.87,48.96 14.36,48.96 13.53,48.91 12.96,48.98 
		12.75,49.12 12.26,49.03 11.72,49.11 9.92,48.93 7.86,48.06 9.22,46.62 9.37,46.44 9.28,45.8 9.37,45.38 9.19,44.81 7.84,44.62 
		7.86,44.04 7.74,43.74 7.88,43.54 7.74,42.79 7.43,41.93 7.56,41.53 8.11,41 7.98,40.98 7.47,40.79 7.5,40.49 7.47,39.92 
		7.4,39.84 7.75,39.46 7.51,39.23 7.4,39 7.75,38.95 8.19,38.73 8.19,38.52 8.28,38.45 8.11,38.16 8.25,37.94 8.25,37.72 
		8.32,37.29 8.31,37.25 8.47,37.21 8.81,37.35 9.03,37.57 9.29,37.6 9.51,37.43 9.78,37.47 10.1,37.77 10.16,38 10.28,38.14 
		10.46,37.99 10.91,37.98 11.17,37.75 11.24,37.56 11.46,37.4 11.41,37.18 11.93,36.98 12.55,36.93 12.62,36.78 12.88,36.62 
		13.14,36.59 13.29,36.19 13.35,35.8 13.76,35.46 13.8,35.14 13.66,35.01 13.71,34.81 13.88,34.77 14.06,34.66 14.48,34.61 
		14.61,34.63 15.12,34.34 15.5,34.28 15.79,34.51 16.14,34.47 16.23,34.6 16.76,34.52 17.07,34.72 17.23,35.03 17.44,35.06 
		17.73,34.86 18,34.92 18.28,35.4 18.5,35.53 19.03,35.48 19.39,35.33 19.59,35.1 19.77,35.09 19.97,34.95 20.12,35.08 20.26,35.32 
		20.79,35.43 20.81,35.19 20.68,35.02 20.73,34.81 21.08,34.76 21.22,34.61 21.38,34.63 21.41,34.8 21.75,34.81 22,34.5 
		21.98,34.06 22.14,33.87 22.35,33.72 22.46,33.28 22.65,33.02 23.02,33.07 23.27,33.29 23.53,33.47 23.5,33.72 23.39,34.07 
		23.44,34.37 23.7,34.39 23.78,34.7 23.71,35.09 23.71,35.41 23.66,36.02 23.86,36.36 23.83,36.57 24.1,36.72 24.49,36.77 
		24.78,36.6 24.86,36.45 25.43,36.27 25.71,36.08 25.81,35.8 	"/>
	<polygon class="st1" points="104.11,35.91 104.22,35.02 104.67,34.73 104.9,34.35 104.93,34.08 105.37,33.86 105.71,33.37 
		106.02,33.28 106.36,32.54 106.53,32.29 106.52,32.13 106.61,31.61 106.95,31.29 107.18,31.78 107.41,31.94 107.61,32.17 
		107.9,32.09 108.22,32.27 108.85,32.28 109.25,32.4 109.51,32 109.51,31.77 109.22,31.39 108.91,31.1 109.2,30.98 109.56,30.98 
		110.23,30.56 110.27,30.22 110.56,29.91 110.88,29.91 111.03,29.63 110.95,29.39 111.01,29.08 111.05,28.74 111.26,28.67 
		111.51,28.93 111.47,29.25 111.58,29.42 112.06,29.6 112.35,30.13 112.29,30.12 111.71,30.62 111.53,30.56 111.47,30.94 
		111.16,31.69 111.13,32.14 111.42,32.43 111.33,33.24 111.55,33.46 111.38,33.81 110.94,34.1 111,34.23 110.13,34.95 110.19,35.19 
		109.94,35.37 109.85,35.52 109.53,35.47 109.2,35.63 109.03,35.96 108.59,36.17 108.54,36.56 108.61,36.92 108.44,37.07 
		108.48,37.5 109.03,37.67 109.17,37.95 110.23,38.75 110.37,39.11 109.7,39.44 108.61,39.39 107.99,39.82 107.43,39.89 106.9,40.3 
		106.75,40.64 106.45,40.22 106.25,40.32 106.32,40.49 105.99,40.82 105.82,40.67 105.47,40.89 105.36,40.66 105.7,40.25 
		105.39,40.09 105.1,40.21 104.96,40.16 105.08,39.88 105.18,39.24 105.45,38.83 105.85,38.84 106.22,38.58 105.89,38.69 
		105.32,38.61 105.23,38.47 105.3,37.72 105.75,37.16 105.59,36.84 105.81,36.72 105.93,36.46 105.73,36.46 105.54,36.65 
		105.02,36.66 104.9,36.44 104.59,36.21 104.53,36.44 104.29,36.57 104.22,36 104.14,36.02 	"/>
</g>
<g id="spot">
	<circle id="kihung" class="st4" cx="108.2" cy="40.38" r="0.97"/>
	<circle id="noida" class="st4" cx="29.55" cy="54.43" r="0.97"/>
	<circle id="veitnum" class="st4" cx="77.35" cy="70.03" r="0.97"/>
	<circle id="donguan" class="st4" cx="89.75" cy="67.23" r="0.97"/>
	<circle id="asan" class="st4" cx="107.65" cy="42.99" r="0.97"/>
	<circle id="beijing" class="st4" cx="92.35" cy="36.23" r="0.97"/>
	<circle id="chunan_1_" class="st4" cx="109.93" cy="42.02" r="0.97"/>
</g>
</svg>
