<svg width="41" height="47" viewBox="0 0 41 47" fill="none" xmlns="http://www.w3.org/2000/svg">
<path d="M5.85714 5.31012C5.05179 5.31012 4.39286 5.97106 4.39286 6.77887V36.1539C4.39286 36.9617 5.05179 37.6226 5.85714 37.6226H26.3571V30.2789C26.3571 28.6541 27.6658 27.3414 29.2857 27.3414H36.6071V6.77887C36.6071 5.97106 35.9482 5.31012 35.1429 5.31012H5.85714ZM26.3571 42.0289H5.85714C2.62656 42.0289 0 39.3943 0 36.1539V6.77887C0 3.53844 2.62656 0.90387 5.85714 0.90387H35.1429C38.3734 0.90387 41 3.53844 41 6.77887V27.3414V27.8463C41 29.4068 40.3868 30.9031 39.2886 32.0047L31.0062 40.3123C29.908 41.4138 28.4163 42.0289 26.8605 42.0289H26.3571Z" fill="white"/>
<g clip-path="url(#clip0_270_7)">
<path d="M15.888 14.9672C16.2307 14.8373 16.6139 14.9474 16.846 15.2383L23.9541 24.1666V15.8174C23.9541 15.3174 24.34 14.9135 24.8177 14.9135C25.2953 14.9135 25.6812 15.3174 25.6812 15.8174V26.6635C25.6812 27.0448 25.4546 27.3838 25.1118 27.5137C24.7691 27.6436 24.3859 27.5335 24.1538 27.2425L17.0457 18.3142V26.6635C17.0457 27.1635 16.6598 27.5674 16.1822 27.5674C15.7045 27.5674 15.3186 27.1635 15.3186 26.6635V15.8174C15.3186 15.4361 15.5453 15.0971 15.888 14.9672Z" fill="white"/>
</g>
<defs>
<clipPath id="clip0_270_7">
<rect width="10.3626" height="14.4615" fill="white" transform="translate(15.3186 14.0096)"/>
</clipPath>
</defs>
</svg>
